<?xml version="1.0" encoding="utf-8"?>
<!-- Generator: Adobe Illustrator 18.0.0, SVG Export Plug-In . SVG Version: 6.00 Build 0)  -->
<!DOCTYPE svg PUBLIC "-//W3C//DTD SVG 1.1//EN" "http://www.w3.org/Graphics/SVG/1.1/DTD/svg11.dtd">
<svg version="1.1" id="Layer_1" xmlns="http://www.w3.org/2000/svg" xmlns:xlink="http://www.w3.org/1999/xlink" x="0px" y="0px"
	 viewBox="0 0 203.5 390.2" style="enable-background:new 0 0 203.5 390.2;" xml:space="preserve">
<g>
	<path style="fill:#010101;" d="M190.4,385.8H12.8c-3,0-5.4-2.4-5.4-5.4v-365c0-3,2.4-5.4,5.4-5.4h177.6c3,0,5.4,2.4,5.4,5.4v365
		C195.8,383.3,193.4,385.8,190.4,385.8z"/>
	<rect x="12.8" y="39.3" style="fill:#FFFFFF;" width="178.1" height="315.9"/>
	<path style="fill:#535353;" d="M119.6,28.1H82c-0.7,0-1.3-0.6-1.3-1.3l0,0c0-0.7,0.6-1.3,1.3-1.3h37.6c0.7,0,1.3,0.6,1.3,1.3l0,0
		C120.9,27.5,120.3,28.1,119.6,28.1z"/>
	<linearGradient id="SVGID_1_" gradientUnits="userSpaceOnUse" x1="101.8097" y1="39.3283" x2="101.8097" y2="355.2306">
		<stop  offset="0" style="stop-color:#FFB05C"/>
		<stop  offset="0.9032" style="stop-color:#F19F91"/>
	</linearGradient>
	<rect x="12.8" y="39.3" style="fill:url(#SVGID_1_);" width="178.1" height="315.9"/>
	<path style="opacity:0.79;fill:#FDFEFF;" d="M139.7,81.8H99.6c-6.2,0-11.3-5.1-11.3-11.3v0c0-6.2,5.1-11.3,11.3-11.3h40.1
		c6.2,0,11.3,5.1,11.3,11.3v0C151,76.7,145.9,81.8,139.7,81.8z"/>
	<path style="opacity:0.79;fill:#FDFEFF;" d="M73,160.4H32.9c-6.2,0-11.3-5.1-11.3-11.3v0c0-6.2,5.1-11.3,11.3-11.3H73
		c6.2,0,11.3,5.1,11.3,11.3v0C84.3,155.3,79.2,160.4,73,160.4z"/>
	<path style="opacity:0.79;fill:#FDFEFF;" d="M98.1,337.9H58.1c-6.2,0-11.3-5.1-11.3-11.3l0,0c0-6.2,5.1-11.3,11.3-11.3h40.1
		c6.2,0,11.3,5.1,11.3,11.3l0,0C109.5,332.8,104.4,337.9,98.1,337.9z"/>
	<path style="opacity:0.79;fill:#FDFEFF;" d="M158.4,81.8H136c-3.5,0-6.3-2.9-6.3-6.3v0c0-3.5,2.9-6.3,6.3-6.3h22.4
		c3.5,0,6.3,2.9,6.3,6.3v0C164.8,79,161.9,81.8,158.4,81.8z"/>
	<path style="opacity:0.79;fill:#FDFEFF;" d="M109.7,88.2H87.3c-3.5,0-6.3-2.9-6.3-6.3v0c0-3.5,2.9-6.3,6.3-6.3h22.4
		c3.5,0,6.3,2.9,6.3,6.3v0C116.1,85.3,113.2,88.2,109.7,88.2z"/>
	<path style="opacity:0.79;fill:#FDFEFF;" d="M151.7,219.5H94.4c-8.9,0-16.2-7.3-16.2-16.2v0c0-8.9,7.3-16.2,16.2-16.2h57.2
		c8.9,0,16.2,7.3,16.2,16.2v0C167.8,212.2,160.6,219.5,151.7,219.5z"/>
	<path style="opacity:0.79;fill:#FDFEFF;" d="M178.5,219.5h-32c-5,0-9.1-4.1-9.1-9.1v0c0-5,4.1-9.1,9.1-9.1h32c5,0,9.1,4.1,9.1,9.1
		v0C187.5,215.4,183.4,219.5,178.5,219.5z"/>
	<path style="opacity:0.79;fill:#FDFEFF;" d="M108.9,228.6H77c-5,0-9.1-4.1-9.1-9.1v0c0-5,4.1-9.1,9.1-9.1h32c5,0,9.1,4.1,9.1,9.1v0
		C118,224.5,113.9,228.6,108.9,228.6z"/>
	<path style="opacity:0.79;fill:#FDFEFF;" d="M57,110.5H34.6c-3.5,0-6.3-2.9-6.3-6.3v0c0-3.5,2.9-6.3,6.3-6.3H57
		c3.5,0,6.3,2.9,6.3,6.3v0C63.4,107.6,60.5,110.5,57,110.5z"/>
	<path style="opacity:0.79;fill:#FDFEFF;" d="M79.2,119.4H56.8c-3.5,0-6.3-2.9-6.3-6.3v0c0-3.5,2.9-6.3,6.3-6.3h22.4
		c3.5,0,6.3,2.9,6.3,6.3v0C85.6,116.6,82.7,119.4,79.2,119.4z"/>
	<path style="opacity:0.79;fill:#FDFEFF;" d="M169.8,268.5h-28.1c-1.9,0-3.5-1.6-3.5-3.5l0,0c0-1.9,1.6-3.5,3.5-3.5h28.1
		c1.9,0,3.5,1.6,3.5,3.5l0,0C173.3,266.9,171.7,268.5,169.8,268.5z"/>
	<path style="opacity:0.79;fill:#FDFEFF;" d="M143.5,271.3h-28.1c-1.9,0-3.5-1.6-3.5-3.5l0,0c0-1.9,1.6-3.5,3.5-3.5h28.1
		c1.9,0,3.5,1.6,3.5,3.5l0,0C147,269.7,145.4,271.3,143.5,271.3z"/>
	<path style="opacity:0.79;fill:#FDFEFF;" d="M142.6,132.7h-22.4c-3.5,0-6.3-2.9-6.3-6.3v0c0-3.5,2.9-6.3,6.3-6.3h22.4
		c3.5,0,6.3,2.9,6.3,6.3v0C149,129.9,146.1,132.7,142.6,132.7z"/>
	<path style="opacity:0.79;fill:#FDFEFF;" d="M73,320.1H50.6c-3.5,0-6.3-2.9-6.3-6.3l0,0c0-3.5,2.9-6.3,6.3-6.3H73
		c3.5,0,6.3,2.9,6.3,6.3l0,0C79.4,317.2,76.5,320.1,73,320.1z"/>
	<path style="opacity:0.39;fill:#FDFEFF;" d="M59.2,237.7H28.5c-1.2,0-2.2-1-2.2-2.2l0,0c0-1.2,1-2.2,2.2-2.2h30.7
		c1.2,0,2.2,1,2.2,2.2l0,0C61.4,236.7,60.4,237.7,59.2,237.7z"/>
	<path style="opacity:0.39;fill:#FDFEFF;" d="M80.5,246.2H49.8c-1.2,0-2.2-1-2.2-2.2l0,0c0-1.2,1-2.2,2.2-2.2h30.7
		c1.2,0,2.2,1,2.2,2.2l0,0C82.7,245.2,81.7,246.2,80.5,246.2z"/>
	<path style="opacity:0.39;fill:#FDFEFF;" d="M88.2,289.3H57.4c-1.2,0-2.2-1-2.2-2.2l0,0c0-1.2,1-2.2,2.2-2.2h30.7
		c1.2,0,2.2,1,2.2,2.2l0,0C90.3,288.4,89.4,289.3,88.2,289.3z"/>
	<path style="opacity:0.39;fill:#FDFEFF;" d="M168.1,335.2h-30.7c-1.2,0-2.2-1-2.2-2.2l0,0c0-1.2,1-2.2,2.2-2.2h30.7
		c1.2,0,2.2,1,2.2,2.2l0,0C170.3,334.3,169.3,335.2,168.1,335.2z"/>
	<path style="opacity:0.39;fill:#FDFEFF;" d="M153.8,171.6H123c-1.2,0-2.2-1-2.2-2.2l0,0c0-1.2,1-2.2,2.2-2.2h30.7
		c1.2,0,2.2,1,2.2,2.2l0,0C155.9,170.6,155,171.6,153.8,171.6z"/>
	<path style="opacity:0.39;fill:#FDFEFF;" d="M61.7,62.3H31c-1.2,0-2.2-1-2.2-2.2v0c0-1.2,1-2.2,2.2-2.2h30.7c1.2,0,2.2,1,2.2,2.2v0
		C63.9,61.4,62.9,62.3,61.7,62.3z"/>
	<path style="opacity:0.79;fill:#FDFEFF;" d="M101.5,156.6H79.1c-3.5,0-6.3-2.9-6.3-6.3v0c0-3.5,2.9-6.3,6.3-6.3h22.4
		c3.5,0,6.3,2.9,6.3,6.3v0C107.9,153.8,105,156.6,101.5,156.6z"/>
	<path style="opacity:0.79;fill:#FDFEFF;" d="M91.3,166.7H68.9c-3.5,0-6.3-2.9-6.3-6.3v0c0-3.5,2.9-6.3,6.3-6.3h22.4
		c3.5,0,6.3,2.9,6.3,6.3v0C97.6,163.9,94.8,166.7,91.3,166.7z"/>
	<path style="opacity:0.79;fill:#FDFEFF;" d="M55.1,326.6H32.6c-3.5,0-6.3-2.9-6.3-6.3l0,0c0-3.5,2.9-6.3,6.3-6.3h22.4
		c3.5,0,6.3,2.9,6.3,6.3l0,0C61.4,323.7,58.5,326.6,55.1,326.6z"/>
</g>
<g>
	<g>
		<rect x="12.3" y="39.3" style="fill:#027FCC;" width="179" height="11.1"/>
		<g>
			<g>
				<circle style="fill:#FFFFFF;" cx="158.4" cy="45.8" r="0.6"/>
				<path style="fill:#FFFFFF;" d="M159.8,44.4C159.8,44.4,159.8,44.4,159.8,44.4L159.8,44.4C159.7,44.4,159.7,44.4,159.8,44.4
					c-0.8-0.8-2-0.7-2.7,0l-0.1,0.1l-0.1,0.1c-0.1,0.1-0.1,0.4,0,0.5c0.1,0.1,0.4,0.1,0.5,0l0.2-0.2c0.5-0.5,1.2-0.5,1.7,0l0.1,0.1
					c0.1,0.1,0.4,0.1,0.5,0c0.1-0.1,0.1-0.2,0.1-0.3c0-0.1,0-0.2-0.1-0.3L159.8,44.4z"/>
				<path style="fill:#FFFFFF;" d="M160.8,43.7l-0.1-0.1c0,0,0,0,0,0l-0.1-0.1c0,0,0,0-0.1,0c-1.2-1.1-3.1-1.1-4.3,0.1c0,0,0,0,0,0
					l-0.2,0.2c-0.1,0.1-0.1,0.3,0,0.5c0.1,0.1,0.3,0.1,0.5,0l0.2-0.2c0,0,0,0,0,0c1-0.9,2.5-0.9,3.5,0l0.2,0.2
					c0.1,0.1,0.3,0.1,0.5,0C160.9,44,160.9,43.8,160.8,43.7z"/>
			</g>
		</g>
		<text transform="matrix(1 0 0 1 16.4147 46.9152)" style="fill:#FFFFFF; font-family:'Roboto-Regular'; font-size:5.3972;">10:30 AM</text>
		<text transform="matrix(1 0 0 1 163.7828 46.3854)" style="fill:#FFFFFF; font-family:'Roboto-Regular'; font-size:5.1075;">85%</text>
		<path style="fill:#F8F8F6;" d="M178.4,46.9c-0.3,0-0.5-0.2-0.5-0.4l0-3.3c0-0.2,0.2-0.4,0.5-0.4l7.7,0c0.3,0,0.5,0.2,0.5,0.4
			l0,0.7l0.6,0l0,2l-0.6,0l0,0.7c0,0.2-0.2,0.4-0.5,0.4L178.4,46.9z M186.2,43l-8,0l0,3.6l8,0L186.2,43z M178.5,43.3l5.8,0l0,2.9
			l-5.8,0L178.5,43.3z"/>
	</g>
</g>
<circle style="fill:none;stroke:#FFFFFF;stroke-miterlimit:10;" cx="101.6" cy="371" r="4.1"/>
<path style="fill:none;stroke:#FFFFFF;stroke-miterlimit:10;" d="M49.7,367.1l-6.8,3.8c-0.1,0.1-0.1,0.2,0,0.3l6.8,3.8
	c0.1,0.1,0.2,0,0.2-0.1v-7.6C49.9,367.1,49.8,367,49.7,367.1z"/>
<path style="fill:none;stroke:#FFFFFF;stroke-miterlimit:10;" d="M157.3,374.9h-6.7c-0.3,0-0.6-0.3-0.6-0.6v-6.7
	c0-0.3,0.3-0.6,0.6-0.6h6.7c0.3,0,0.6,0.3,0.6,0.6v6.7C157.9,374.7,157.6,374.9,157.3,374.9z"/>
<path style="opacity:0.1;fill:#F5FDFF;" d="M9.4,361.6L120.9,11.9H15c-3.1,0-5.7,2.5-5.7,5.7V361.6z"/>
<path style="fill:#FFFFFF;" d="M185.5,70.6H18.1c-0.9,0-1.7-0.7-1.7-1.7V59c0-0.9,0.7-1.7,1.7-1.7h167.4c0.9,0,1.7,0.7,1.7,1.7v9.9
	C187.2,69.8,186.4,70.6,185.5,70.6z"/>
<rect x="12.8" y="306.1" style="opacity:0.53;fill:#010101;" width="178.1" height="49.2"/>
<g>
	<path style="fill:#FFFFFF;" d="M47.7,330.6c0,8.1-6.6,14.7-14.7,14.7c-8.1,0-14.7-6.6-14.7-14.7c0-8.1,6.6-14.7,14.7-14.7
		C41.1,315.9,47.7,322.5,47.7,330.6L47.7,330.6z M47.7,330.6"/>
	<path style="fill:#1E88E5;" d="M46.4,330.6c0,7.5-6.1,13.5-13.5,13.5c-7.5,0-13.5-6.1-13.5-13.5c0-7.5,6.1-13.5,13.5-13.5
		C40.4,317.1,46.4,323.2,46.4,330.6L46.4,330.6z M46.4,330.6"/>
	<path style="fill:#FFFFFF;" d="M40.3,323.6c0.6-0.2,1.2,0.3,1.1,0.9l-2.6,12.6c-0.1,0.6-0.8,0.9-1.3,0.5l-4-2.9l-2,2.1
		c-0.4,0.4-1,0.2-1.1-0.3l-1.5-4.6l-3.9-1.2c-0.5-0.2-0.5-0.9,0-1.1L40.3,323.6z M38.3,326.4c0.2-0.2,0-0.4-0.2-0.3l-8.5,5.3
		c-0.1,0.1-0.2,0.3-0.2,0.4l1.2,5.1c0,0.1,0.1,0.1,0.1,0L31,333c0-0.1,0.1-0.2,0.1-0.2L38.3,326.4z M38.3,326.4"/>
	<path style="fill:#9EC2E5;" d="M38.1,326.1c0.2-0.1,0.4,0.1,0.2,0.3l-7.2,6.3c-0.1,0.1-0.1,0.2-0.1,0.2l-0.3,3.9
		c0,0.1-0.1,0.1-0.1,0l-1.2-5.1c-0.1-0.2,0-0.3,0.2-0.4L38.1,326.1z M38.1,326.1"/>
	<path style="fill:#FFFFFF;" d="M30.7,336.9c-0.2-0.1-0.3-0.2-0.4-0.4l-1.5-4.6l-3.9-1.2c-0.5-0.2-0.5-0.9,0-1.1l15.4-6
		c0.4-0.1,0.8,0,1,0.3c0-0.1-0.1-0.1-0.1-0.1l-10.5,8.6v0.4l-0.1,0l0.1,2.4L30.7,336.9C30.6,336.9,30.7,336.9,30.7,336.9L30.7,336.9
		z M30.7,336.9"/>
	<path style="fill:#D1D1D1;" d="M41.3,324.3c0,0.1,0,0.1,0,0.2l-2.6,12.6c-0.1,0.6-0.8,0.9-1.3,0.5l-4-2.9l-2.8-2v-0.4l10.5-8.6
		c0,0,0.1,0.1,0.1,0.1c0,0,0,0,0,0c0,0,0,0,0,0c0,0,0,0,0,0c0,0,0,0,0,0c0,0,0,0,0,0C41.3,324.1,41.3,324.2,41.3,324.3
		C41.3,324.2,41.3,324.2,41.3,324.3L41.3,324.3z M41.3,324.3"/>
	<path style="fill:#D1D1D1;" d="M33.4,334.7l-2,2.1c0,0,0,0-0.1,0c0,0,0,0-0.1,0l0,0c0,0-0.1,0-0.1,0.1c0,0,0,0-0.1,0
		c-0.1,0-0.2,0-0.3,0c0,0,0,0-0.1,0c0,0,0,0,0,0c0,0,0,0-0.1,0c0,0,0,0,0,0l0-1.9v-2.3L33.4,334.7z M33.4,334.7"/>
	<path style="fill:#DADDE0;" d="M31.3,336.8C31.3,336.8,31.3,336.8,31.3,336.8L31.3,336.8C31.3,336.8,31.3,336.8,31.3,336.8
		L31.3,336.8z M31.3,336.8"/>
	<path style="fill:#DADDE0;" d="M31.3,336.8L31.3,336.8C31.3,336.8,31.3,336.8,31.3,336.8L31.3,336.8z M31.3,336.8"/>
	<path style="fill:#DADDE0;" d="M31.2,336.9c0,0,0.1,0,0.1-0.1C31.2,336.9,31.2,336.9,31.2,336.9L31.2,336.9z M31.2,336.9"/>
	<path style="fill:#DADDE0;" d="M30.8,336.9c0.1,0,0.2,0,0.3,0C31,336.9,31,336.9,30.8,336.9C30.9,336.9,30.9,336.9,30.8,336.9
		C30.8,336.9,30.8,336.9,30.8,336.9L30.8,336.9z M30.8,336.9"/>
	<path style="fill:#FFFFFF;" d="M30.9,336.9C30.9,336.9,30.9,336.9,30.9,336.9C30.9,336.9,30.9,336.9,30.9,336.9L30.9,336.9z
		 M30.9,336.9"/>
	<path style="fill:#FFFFFF;" d="M30.8,336.9C30.8,336.9,30.8,336.9,30.8,336.9C30.8,336.9,30.8,336.9,30.8,336.9
		C30.8,336.9,30.8,336.9,30.8,336.9L30.8,336.9z M30.8,336.9"/>
	<path style="fill:#DADDE0;" d="M30.8,336.9C30.8,336.9,30.8,336.9,30.8,336.9C30.8,336.9,30.8,336.9,30.8,336.9
		C30.8,336.9,30.8,336.9,30.8,336.9L30.8,336.9z M30.8,336.9"/>
	<path style="fill:#DADDE0;" d="M30.7,336.9C30.7,336.9,30.7,336.9,30.7,336.9C30.7,336.9,30.7,336.9,30.7,336.9
		C30.7,336.9,30.7,336.9,30.7,336.9C30.7,336.9,30.7,336.9,30.7,336.9L30.7,336.9z M30.7,336.9"/>
	<path style="fill:#FFFFFF;" d="M30.7,336.9C30.7,336.9,30.7,336.9,30.7,336.9C30.7,336.9,30.7,336.9,30.7,336.9L30.7,336.9z
		 M30.7,336.9"/>
	<path style="fill:#FFFFFF;" d="M30.7,336.9C30.7,336.9,30.7,336.9,30.7,336.9C30.7,336.9,30.7,336.9,30.7,336.9
		C30.7,336.9,30.7,336.9,30.7,336.9L30.7,336.9z M30.7,336.9"/>
	<path style="fill:#DADDE0;" d="M30.7,336.9C30.7,336.9,30.7,336.9,30.7,336.9C30.7,336.9,30.7,336.9,30.7,336.9L30.7,336.9
		C30.7,336.9,30.7,336.9,30.7,336.9L30.7,336.9z M30.7,336.9"/>
	<path style="fill:#D1D1D1;" d="M30.6,335l0,1.9c0,0,0,0,0,0V335z M30.6,335"/>
	<path style="fill:#DADDE0;" d="M30.6,332.7v2.3V332.7L30.6,332.7z M30.6,332.7"/>
	<path style="fill:#ADBCC9;" d="M38.3,326.4l-7.2,6.3c-0.1,0.1-0.1,0.2-0.1,0.2l-0.3,3.9c0,0.1-0.1,0.1-0.1,0l-1.2-5.1
		c-0.1-0.2,0-0.3,0.2-0.4l8.5-5.3C38.3,326,38.5,326.2,38.3,326.4L38.3,326.4z M38.3,326.4"/>
</g>
<g>
	<linearGradient id="SVGID_2_" gradientUnits="userSpaceOnUse" x1="70.288" y1="314.7329" x2="70.288" y2="345.8326">
		<stop  offset="0" style="stop-color:#1599FF"/>
		<stop  offset="0.1954" style="stop-color:#1393FF"/>
		<stop  offset="0.4504" style="stop-color:#0F83FF"/>
		<stop  offset="0.7371" style="stop-color:#0868FF"/>
		<stop  offset="1" style="stop-color:#0049FF"/>
	</linearGradient>
	<path style="fill:url(#SVGID_2_);" d="M70.3,314.7c-8.4,0-15.2,6.4-15.2,14.4c0,4.5,2.2,8.6,5.7,11.2v5.5l5.2-2.9
		c1.4,0.4,2.9,0.6,4.4,0.6c8.4,0,15.2-6.4,15.2-14.4C85.5,321.2,78.7,314.7,70.3,314.7z"/>
	<polygon style="fill:#FAFAFA;" points="71.7,334.4 67.9,330.3 60.3,334.4 68.6,325.6 72.6,329.7 80.1,325.6 	"/>
</g>
<g>
	<g>
		<polygon style="fill:#F2F2F2;" points="151.2,322.8 149.3,341.1 127.5,341.1 126,323.2 138.4,330.1 		"/>
		<polygon style="fill:#F2F2F2;" points="150.5,319.4 138.4,330.8 126.3,319.4 138.4,319.4 		"/>
	</g>
	<path style="fill:#F14336;" d="M127.5,324.6v16.4h-2c-0.7,0-1.3-0.6-1.3-1.3v-17.5l2.2,0.1L127.5,324.6z"/>
	<path style="fill:#D32E2A;" d="M152.7,322.2v17.5c0,0.7-0.6,1.3-1.3,1.3h-2v-16.4l1.1-2.6L152.7,322.2z"/>
	<path style="fill:#F14336;" d="M152.7,320.7v1.5l-3.3,2.4l-10.9,8l-10.9-8l-3.3-2.4v-1.5c0-0.7,0.6-1.3,1.3-1.3h0.8l12.1,8.8
		l12.1-8.8h0.8C152.1,319.4,152.7,320,152.7,320.7z"/>
	<polygon style="fill:#D32E2A;" points="127.5,324.6 124.2,324.1 124.2,322.2 	"/>
</g>
<path style="fill:#FFFFFF;" d="M103.2,318.5c-6.3,0-11.4,5.1-11.4,11.4c0,6.3,5.1,11.4,11.4,11.4s11.4-5.1,11.4-11.4
	C114.6,323.5,109.5,318.5,103.2,318.5z M98.2,333.6c-0.7,0-1.2-0.5-1.2-1.2s0.5-1.2,1.2-1.2s1.2,0.5,1.2,1.2S98.9,333.6,98.2,333.6z
	 M98.2,328.5c-0.7,0-1.2-0.5-1.2-1.2s0.5-1.2,1.2-1.2s1.2,0.5,1.2,1.2S98.9,328.5,98.2,328.5z M103.2,333.6c-0.7,0-1.2-0.5-1.2-1.2
	s0.5-1.2,1.2-1.2s1.2,0.5,1.2,1.2S103.9,333.6,103.2,333.6z M103.2,328.5c-0.7,0-1.2-0.5-1.2-1.2s0.5-1.2,1.2-1.2s1.2,0.5,1.2,1.2
	S103.9,328.5,103.2,328.5z M108.3,333.6c-0.7,0-1.2-0.5-1.2-1.2s0.5-1.2,1.2-1.2s1.2,0.5,1.2,1.2S109,333.6,108.3,333.6z
	 M108.3,328.5c-0.7,0-1.2-0.5-1.2-1.2s0.5-1.2,1.2-1.2s1.2,0.5,1.2,1.2S109,328.5,108.3,328.5z"/>
<circle style="fill:#2431D1;" cx="173.3" cy="329.9" r="13.5"/>
<path style="fill:#0C1260;" d="M186.8,329.9c0-7.4-6-13.5-13.5-13.5v27C180.7,343.4,186.8,337.4,186.8,329.9z"/>
<path style="fill:#0006B0;" d="M161.9,322.8l11.4,7.1v-13.5C168.5,316.5,164.2,319,161.9,322.8z"/>
<path style="fill:#0006B0;" d="M184.7,337.1l-11.4-7.1v13.5C178.1,343.4,182.4,340.9,184.7,337.1z"/>
<g>
	<path style="fill:#FFFFFF;" d="M173.3,328.1c-1.4,0-2.5,1.1-2.5,2.5c0,1.4,1.1,2.5,2.5,2.5c1.4,0,2.5-1.1,2.5-2.5
		C175.8,329.2,174.7,328.1,173.3,328.1L173.3,328.1z M179.8,325.7h-2c-0.3,0-0.6-0.2-0.6-0.5l-0.5-1.5c-0.1-0.3-0.4-0.5-0.6-0.5
		h-5.6c-0.3,0-0.6,0.2-0.6,0.5l-0.5,1.5c-0.1,0.3-0.4,0.5-0.6,0.5h-2c-0.9,0-1.6,0.7-1.6,1.6v7.4c0,0.9,0.7,1.6,1.6,1.6h13.1
		c0.9,0,1.6-0.7,1.6-1.6v-7.4C181.5,326.4,180.7,325.7,179.8,325.7L179.8,325.7z M173.3,334.7c-2.3,0-4.1-1.8-4.1-4.1
		c0-2.3,1.8-4.1,4.1-4.1c2.3,0,4.1,1.8,4.1,4.1C177.4,332.8,175.6,334.7,173.3,334.7L173.3,334.7z M179.3,328.4
		c-0.3,0-0.6-0.3-0.6-0.6c0-0.3,0.3-0.6,0.6-0.6c0.3,0,0.6,0.3,0.6,0.6C179.8,328.2,179.6,328.4,179.3,328.4L179.3,328.4z
		 M179.3,328.4"/>
</g>
</svg>
