<?xml version="1.0" encoding="utf-8"?>
<!-- Generator: Adobe Illustrator 18.0.0, SVG Export Plug-In . SVG Version: 6.00 Build 0)  -->
<!DOCTYPE svg PUBLIC "-//W3C//DTD SVG 1.1//EN" "http://www.w3.org/Graphics/SVG/1.1/DTD/svg11.dtd">
<svg version="1.1" id="Layer_1" xmlns="http://www.w3.org/2000/svg" xmlns:xlink="http://www.w3.org/1999/xlink" x="0px" y="0px"
	 viewBox="0 0 792 1224" style="enable-background:new 0 0 792 1224;" xml:space="preserve">
<g>
	<path style="fill:#C69B6F;" d="M692.6,1082.1l-282.1-34.7l-300.2,31.5c-18.1,2-33.7-12.4-33.5-30.2l5-878.3c0-16.1,13.9-28.8,30-27
		l292.3,65.9l297.7-62.5c16.1-1.5,30,11.4,29.7,27.5l-5.2,877.8C726.6,1070.2,710.7,1084.3,692.6,1082.1z"/>
	<path style="fill:#723E00;" d="M742.9,960.4l-683.9-4c-4.7,0-8.7-4-8.7-8.7l4-672.8c0-4.7,4-8.7,8.7-8.7l683.9,4
		c4.7,0,8.7,4,8.7,8.7l-4,672.8C751.6,956.4,747.6,960.4,742.9,960.4z"/>
</g>
<path style="fill:#7FC24E;" d="M712.7,834c-8.2-7.7-22.3,2.7-31.2,14.6c0-21.1,0-42.1,0-63.5c0-4-11.9-4-11.9,0
	c0,13.9,0,27.5,0,41.4c-6.7-16.6-23.1-35.2-36.9-17.4c-11.2,14.1,26,39.2,36.9,36.7c0,37.2,0,74.6,0,111.8c0,4,11.9,4,11.9,0
	c0-28.8,0-57.5,0-86.3C698.5,870.4,732.8,853.3,712.7,834z"/>
<path style="fill:#7FC24E;" d="M647,903.1c-3.5-3.5-9.7,1.2-13.9,6.4c0-9.2,0-18.6,0-27.8c0-1.7-5.2-1.7-5.2,0c0,5.9,0,12.1,0,18.1
	c-3-7.4-10.2-15.6-16.4-7.7c-5,6.2,11.4,17.4,16.4,16.1c0,16.4,0,32.7,0,49.1c0,1.7,5.2,1.7,5.2,0c0-12.6,0-25.3,0-37.9
	C640.8,919.3,655.9,911.6,647,903.1z"/>
<path style="fill:#7FC24E;" d="M735.5,908.3c-3.5-3.5-9.7,1.2-13.9,6.4c0-9.2,0-18.6,0-27.8c0-1.7-5.2-1.7-5.2,0
	c0,5.9,0,12.1,0,18.1c-3-7.4-10.2-15.6-16.4-7.7c-5,6.2,11.4,17.4,16.4,16.1c0,16.4,0,32.7,0,49.1c0,1.7,5.2,1.7,5.2,0
	c0-12.6,0-25.3,0-37.9C729.3,924.2,744.4,916.8,735.5,908.3z"/>
<path style="opacity:0.39;fill:#5B3103;" d="M104.1,143.6c-12.6,2.2-22.3,13.3-22.3,26.8l-0.5,96L63,266.3c-4.7,0-8.7,4-8.7,8.7
	l-4,672.8c0,4.7,4,8.7,8.7,8.7l18.4,0.1l-0.5,92.1c-0.2,17.8,15.4,32.2,33.5,30.2l300.2-31.5l282.1,34.7c8.2,1,16-1.4,22-6
	L104.1,143.6z"/>
<g>
	<path style="fill:#FFFFFF;" d="M151.7,560.3v12.1l-19.6,1v-10.9c0-10.7-4-15.6-11.4-15.6c-7.4,0-11.4,4.7-11.4,13.6v73.4
		c0,8.9,4,13.6,11.4,13.6c7.4,0,11.4-4.7,11.4-15.6v-14.9l19.6,1v16.1c0,20.3-11.7,32.2-31.7,32.2c-19.8,0-31.2-11.9-31.2-32.2
		v-73.9c0-20.3,11.4-32.2,31.2-32.2C140.1,528.1,151.7,540,151.7,560.3z"/>
	<path style="fill:#FFFFFF;" d="M233,562.1v70.4c0,21.1-12.4,34-32.7,34s-32.7-12.9-32.7-34v-70.4c0-21.1,12.4-34,32.7-34
		S233,541,233,562.1z M187.7,562.3v69.9c0,9.9,4.5,15.4,12.4,15.4c8.2,0,12.4-5.5,12.4-15.4v-69.9c0-9.9-4.5-15.4-12.4-15.4
		S187.7,552.4,187.7,562.3z"/>
	<path style="fill:#FFFFFF;" d="M318.5,664.4V571H318l-16.9,74.1H289L272.2,571h-0.5v93.5h-18.8V530.1h26.8l15.9,72.1h0.5l15.9-72.1
		h27.5v134.4H318.5z"/>
	<path style="fill:#FFFFFF;" d="M390.2,530.1c21.8,0,33.7,11.9,33.7,34v10.7c0,22.1-11.9,34-33.7,34h-8.9v55.8h-20.3V530.1H390.2z
		 M381.3,590.1h8.2c9.9,0,14.1-5.2,14.1-16.6v-8.2c0-11.4-4.5-16.6-14.1-16.6h-8.2V590.1z"/>
	<path style="fill:#FFFFFF;" d="M503.7,562.1v70.4c0,21.1-12.4,34-32.7,34s-32.7-12.9-32.7-34v-70.4c0-21.1,12.4-34,32.7-34
		S503.7,541,503.7,562.1z M458.3,562.3v69.9c0,9.9,4.5,15.4,12.4,15.4c7.9,0,12.4-5.5,12.4-15.4v-69.9c0-9.9-4.5-15.4-12.4-15.4
		C462.8,546.9,458.3,552.4,458.3,562.3z"/>
	<path style="fill:#FFFFFF;" d="M578.3,558.3v3.5l-19.6,2v-5c0-7.7-3.7-11.7-10.4-11.7s-10.4,4-10.4,11.7v1.7
		c0,7.9,3.5,14.6,17.1,26c18.6,15.9,25.5,26.8,25.5,43.1v6.7c0,19.1-11.4,30.2-31.5,30.2c-20.1,0-31.5-10.9-31.5-30.2v-8.9l19.6-2
		v9.7c0,8.4,3.7,12.6,11.4,12.6s11.7-4.2,11.7-12.6v-4.5c0-8.4-4-15.1-17.6-26.8c-18.6-15.9-25-26.8-25-42.6v-3
		c0-19.1,10.9-30.2,30.2-30.2C567.4,528.1,578.3,539,578.3,558.3z"/>
	<path style="fill:#FFFFFF;" d="M625.7,549.2v115.3h-20.3V549.2h-21.8v-19.1h63.7v19.1H625.7z"/>
	<path style="fill:#FFFFFF;" d="M698.1,664.4l-4.5-30.5H671l-4.5,30.5h-20.3l23.3-134.4h26l23.3,134.4H698.1z M673.8,615.6h17.1
		l-8.2-56.8h-0.5L673.8,615.6z"/>
</g>
</svg>
