<?xml version="1.0" encoding="utf-8"?>
<!-- Generator: Adobe Illustrator 22.1.0, SVG Export Plug-In . SVG Version: 6.00 Build 0)  -->
<svg version="1.1" id="Layer_1" xmlns="http://www.w3.org/2000/svg" xmlns:xlink="http://www.w3.org/1999/xlink" x="0px" y="0px"
	 viewBox="0 0 526.7 259.2" style="enable-background:new 0 0 526.7 259.2;" xml:space="preserve">
<style type="text/css">
	.st0{fill:#A3794F;}
	.st1{fill:#C69B6F;}
	.st2{opacity:0.62;fill:#7F532A;enable-background:new    ;}
	.st3{fill:#BA8E63;}
	.st4{opacity:0.62;fill:#A3794F;enable-background:new    ;}
</style>
<g>
	<g>
		<polygon class="st0" points="104,0 0,48.9 82,223.3 256.4,141.3 199.5,20.1 		"/>
	</g>
	<polygon class="st1" points="104,0 115.4,54.2 199.5,20.1 	"/>
	<polygon class="st2" points="120.6,52.2 131.9,58.4 199.5,20.1 	"/>
</g>
<g>
	<polygon class="st0" points="319.5,84.7 280.4,158.1 352.1,259.2 447,258.1 514.9,157.9 473.4,73.7 	"/>
	<path class="st2" d="M476.4,74.7L319,85.7L288.9,141c7.3,10.8,13,18.9,13.9,18.9c1.6,0,45.3-29.2,78.8-52.3
		c39.1,27,87.8,65,89.7,65c1.6,0,15.5-20.8,29.8-42.8L476.4,74.7z"/>
	<path class="st3" d="M304.2,45.8l171.1,0.1l51.4,34.6c0,0-51.4,83.1-54.4,83.1s-132.6-92-132.6-92L304.2,45.8z"/>
	<path class="st4" d="M310.1,47.8l28.7,20.8c0,0,19.8,16.4,45.4,34.4c23.8-16.8,43.7-34.2,43.7-34.2l-24.1-22.5L310.1,47.8z"/>
	<path class="st1" d="M401.9,46.4l-97-0.6l-46,30.9c0,0,46,74.2,48.6,74.2s118.4-82.2,118.4-82.2L401.9,46.4z"/>
</g>
</svg>
