<?xml version="1.0" encoding="utf-8"?>
<!-- Generator: Adobe Illustrator 18.0.0, SVG Export Plug-In . SVG Version: 6.00 Build 0)  -->
<!DOCTYPE svg PUBLIC "-//W3C//DTD SVG 1.1//EN" "http://www.w3.org/Graphics/SVG/1.1/DTD/svg11.dtd">
<svg version="1.1" id="Layer_1" xmlns="http://www.w3.org/2000/svg" xmlns:xlink="http://www.w3.org/1999/xlink" x="0px" y="0px"
	 viewBox="0 0 283.5 283.5" style="enable-background:new 0 0 283.5 283.5;" xml:space="preserve">
<path style="fill:#FFFFFF;" d="M205.1,104.4V93c0-1.2-1-2.2-2.2-2.2H102.2c-3.6,0-6.6,3-6.6,6.6v48.4c0,1.5-1.2,2.7-2.7,2.7H78.8
	c-0.9,0-1.5,1-1,1.8l24.1,41.7c0.8,1.3,2.7,1.3,3.4,0l24.1-41.7c0.5-0.8-0.1-1.8-1-1.8h-14.2c-1.5,0-2.7-1.2-2.7-2.7V111
	c0-2.4,2-4.4,4.4-4.4h87C204.1,106.6,205.1,105.6,205.1,104.4z"/>
</svg>
