<?xml version="1.0" encoding="utf-8"?>
<!-- Generator: Adobe Illustrator 18.0.0, SVG Export Plug-In . SVG Version: 6.00 Build 0)  -->
<!DOCTYPE svg PUBLIC "-//W3C//DTD SVG 1.1//EN" "http://www.w3.org/Graphics/SVG/1.1/DTD/svg11.dtd">
<svg version="1.1" id="Layer_2" xmlns="http://www.w3.org/2000/svg" xmlns:xlink="http://www.w3.org/1999/xlink" x="0px" y="0px"
	 viewBox="0 0 819 404" style="enable-background:new 0 0 819 404;" xml:space="preserve">
<g>
	<g>
		<path style="fill:#666666;" d="M220.7,297.3l69.4-122.5C516.3,304.6,442.7,424.7,220.7,297.3z"/>
		<g>
			<path style="fill:#7D7B7E;" d="M304.5,273.6l-108.5-60.2c-19.6-10.9-39.5-21.3-59.1-32.1c3.1-5.7,6.2-11.2,9.3-16.9
				c19.6,10.9,39.1,21.9,58.7,32.9l108.3,61.1C326,265.6,317.5,280.3,304.5,273.6z"/>
			<path style="fill:#FFB217;" d="M71.4,134.1L71.4,134.1c-3.3,6-4.2,12.4-3,18.1c1.2,5.6,4.5,10.3,9.6,12.8
				c18.7,9.4,37.3,18.7,55.8,28.1c18.7,9.4,37.3,18.7,56,28.1c3.1-5.7,6.2-11.2,9.4-16.9c3.1-5.7,6.2-11.2,9.3-16.9
				c-17.9-10.7-35.9-21.4-53.7-32.1c-17.9-10.7-35.7-21.4-53.7-32.1c-4.9-2.9-10.7-3.2-16-1.2C79.6,123.8,74.6,128.1,71.4,134.1z"/>
			<path style="fill:#FFC654;" d="M217.4,187.7c-3.7,6.7-7.5,13.5-11.2,20.2c-3.7,6.7-7.5,13.5-11.2,20.2c-2,3.6-6.9,5-11,3.1l0,0
				c-4.1-1.9-5.7-6.4-3.6-10.2c3.8-7,7.8-13.9,11.6-20.9c3.8-7,7.8-13.9,11.6-20.9c2.1-3.7,6.8-4.7,10.5-2.4l0,0
				C217.9,179.4,219.4,184.2,217.4,187.7z"/>
		</g>
	</g>
</g>
<g>
	<g>
		<g>
			<polygon style="fill:#94DCF2;" points="577.7,142.6 562.4,353.9 664.2,380 740.6,176.2 			"/>
			<path style="fill:#94DCF2;" d="M724.2,191.4l23.3-3.1l17.6,9.4c0,0-24.3,114-26,113.5c-1.7-0.5-34.9,13-34.9,13l3.5-25.2
				l23.1-11.7l11.7-76.5l-32.4,13L724.2,191.4z"/>
		</g>
		<path style="fill:#54AFD3;" d="M582.7,186.7l-12.6,155.8l88.5,22.1l60.8-156.8c0,0-46.8-12-80.7-9.7
			c-33.9,2.2-38.1-12.2-46.6-16.8C583.5,176.6,582.7,186.7,582.7,186.7z"/>
		<path style="fill:#FFFFFF;" d="M616.3,230.5l-38-6.2c-1-0.1-1.6-1-1.5-2l0,0c0.1-1,1-1.6,2-1.5l38,6.2c1,0.1,1.6,1,1.5,2l0,0
			C618.1,230,617.2,230.6,616.3,230.5z"/>
		<path style="fill:#FFFFFF;" d="M612,261.4l-38-6.2c-1-0.1-1.6-1-1.5-2l0,0c0.1-1,1-1.6,2-1.5l38,6.2c1,0.1,1.6,1,1.5,2l0,0
			C613.8,260.9,612.8,261.5,612,261.4z"/>
		<path style="fill:#FFFFFF;" d="M601.7,239.4l-25.7-4.2c-0.6-0.1-1.1-0.7-1-1.4l0,0c0.1-0.6,0.7-1.1,1.4-1l25.7,4.2
			c0.6,0.1,1.1,0.7,1,1.4l0,0C603,239,602.4,239.5,601.7,239.4z"/>
		<path style="fill:#FFFFFF;" d="M598.4,275.8l-25.7-4.2c-0.6-0.1-1.1-0.7-1-1.4l0,0c0.1-0.6,0.7-1.1,1.4-1l25.7,4.2
			c0.6,0.1,1.1,0.7,1,1.4l0,0C599.6,275.4,599,275.8,598.4,275.8z"/>
		<path style="fill:#FFFFFF;" d="M609.6,292.3l-38-6.2c-1-0.1-1.6-1-1.5-2l0,0c0.1-1,1-1.6,2-1.5l38,6.2c1,0.1,1.6,1,1.5,2l0,0
			C611.4,291.8,610.5,292.5,609.6,292.3z"/>
		<path style="fill:#FFFFFF;" d="M596.1,306.6l-25.7-4.2c-0.6-0.1-1.1-0.7-1-1.4l0,0c0.1-0.6,0.7-1.1,1.4-1l25.7,4.2
			c0.6,0.1,1.1,0.7,1,1.4l0,0C597.3,306.3,596.7,306.8,596.1,306.6z"/>
	</g>
</g>
<g>
	<path d="M233.8,126.9c-2.2,0-3.2-1.4-3.2-4.2c0-16.1-0.4-31-1.1-44.8c-2.3-0.4-4.4-0.6-6.4-0.6s-3.8,0.3-5.3,1
		c0,4.7,0.4,11.8,1.1,21.4c0.7,9.5,1.1,16.8,1.1,21.6c0,0.8-0.2,1.6-0.7,2.3c-0.5,0.7-1.2,1.1-2,1.1c-2.3,0-4-7.2-5.1-21.8
		c-1.4-19.7-2.2-43.6-2.2-71.6c0-1.5,0.7-2.3,2.2-2.3c0.8,0,1.6,0.2,2.5,0.7c0.9,0.4,1.5,0.9,1.9,1.4c-0.3,3-0.4,6.2-0.4,9.5
		l0.9,26.1l-0.1,4.8c0,1.2,0.1,2.3,0.2,3.3l12.3-0.9l-0.5-41.7v-3.3c3.2,0,5.1,1.4,5.8,4.3c0.3,1.4,0.4,5,0.4,10.7
		c0,5.7,0.4,17.9,1.2,36.6c0.8,18.6,1.2,32.6,1.2,41.8c0,1.1-0.4,2.2-1.1,3.1C235.7,126.4,234.8,126.9,233.8,126.9z"/>
	<path d="M259.4,78.5l-3.2-0.1c-1.2,0-2.1,0.3-2.6,0.9v39.2c4.3-0.2,6.7-0.4,7.1-0.4c4.8,0,7.3,1.1,7.3,3.3v0.4
		c-0.6,1.2-1.6,2-3,2.7s-2.6,1-3.7,1.1c-1.1,0.1-2.5,0.1-4.2,0.1h-4c-3.1,0-5.1-0.6-5.8-1.9c-0.3-0.6-0.5-1.3-0.5-2.3V47.8
		c0-1.4-0.3-3.6-0.9-6.4c-0.6-2.9-0.9-5-0.9-6.5v-0.4c1.4-2.3,2.5-3.8,3.2-4.5l9.4-1.1c1.3,0,2.6,0.4,3.9,1.1c1.3,0.8,2,1.8,2,3
		c0,2.5-1.9,3.8-5.8,3.8l-3.7-0.1c-0.6,0-1.1,0-1.4,0.1l1,21c0,1.7-0.1,4.2-0.3,7.4c-0.2,3.2-0.3,5.6-0.3,7.1
		c0.5-0.1,1.1-0.2,1.9-0.4c1.7-0.5,3.1-0.7,4.1-0.7c1,0,1.8,0.4,2.6,1.1c0.8,0.7,1.1,1.6,1.1,2.5s-0.3,1.9-0.9,2.7
		C261.2,78.1,260.4,78.5,259.4,78.5z"/>
	<path d="M274.4,121.3l0.5-74.5V31.1c0-1,0.2-1.7,0.6-2.1c0.4-0.4,1.5-0.6,3.3-0.6c1.8,0,3.5,0.4,5.3,1.3c1.8,0.8,3.3,2,4.6,3.4
		c1.2,1.5,2.2,3.1,3.1,5c1.7,3.5,2.5,7.3,2.5,11.5c0,4.1-1,8.9-3.1,14.2c-0.2,0.6-0.7,1.8-1.5,3.7s-1.2,3-1.3,3.3
		c0,6.3,1.6,14.4,4.8,24.5c1.1,3.4,2.6,8,4.6,13.9c2,5.9,3.2,9.6,3.7,11.2v0.3c0,2.9-0.3,4.5-1,5c-0.7,0.5-1.4,0.7-2.1,0.7
		c-1.6,0-3.1-1.1-4.6-3.4v-0.4c-0.4-7.7-3.1-19.3-7.9-34.9c-2.2-7.1-3.8-12.4-4.7-15.8v50c0,1.3-0.2,2.3-0.7,3
		c-0.5,0.7-1.3,1.1-2.5,1.1c-1.2,0-2.1-0.3-2.7-1c-0.6-0.7-0.9-1.5-0.9-2.5V121.3z M281.4,34.3l-0.7,25.9c0,2.6,0,4.5,0.1,5.8
		c1.4-1.4,2.9-3,4.3-4.9l2-11c0.1-0.6,0.2-1.2,0.2-2c0-2-0.4-4.5-1.2-7.4C284.9,36.8,283.3,34.6,281.4,34.3z"/>
	<path d="M308.4,121.3l0.5-74.5V31.1c0-1,0.2-1.7,0.6-2.1c0.4-0.4,1.5-0.6,3.3-0.6c1.8,0,3.5,0.4,5.3,1.3c1.8,0.8,3.3,2,4.6,3.4
		c1.2,1.5,2.2,3.1,3.1,5c1.7,3.5,2.5,7.3,2.5,11.5c0,4.1-1,8.9-3.1,14.2c-0.2,0.6-0.7,1.8-1.5,3.7s-1.2,3-1.3,3.3
		c0,6.3,1.6,14.4,4.8,24.5c1.1,3.4,2.6,8,4.6,13.9c2,5.9,3.2,9.6,3.7,11.2v0.3c0,2.9-0.3,4.5-1,5c-0.7,0.5-1.4,0.7-2.1,0.7
		c-1.6,0-3.1-1.1-4.6-3.4v-0.4c-0.4-7.7-3.1-19.3-7.9-34.9c-2.2-7.1-3.8-12.4-4.7-15.8v50c0,1.3-0.2,2.3-0.7,3
		c-0.5,0.7-1.3,1.1-2.5,1.1c-1.2,0-2.1-0.3-2.7-1c-0.6-0.7-0.9-1.5-0.9-2.5V121.3z M315.4,34.3l-0.7,25.9c0,2.6,0,4.5,0.1,5.8
		c1.4-1.4,2.9-3,4.3-4.9l2-11c0.1-0.6,0.2-1.2,0.2-2c0-2-0.4-4.5-1.2-7.4C318.9,36.8,317.3,34.6,315.4,34.3z"/>
	<path d="M370.2,124.9c-2.6,0-3.9-1.1-3.9-3.3v-16.6c-1.2-0.8-3.4-1.5-6.5-2.1c-3.1-0.6-5.9-1-8.3-1.1c-0.9,1.5-1.6,3.6-2.1,6.4
		c-0.6,2.8-1.1,5.6-1.7,8.5c-0.6,2.9-1.4,5.1-2.4,6.8c-3.3,0-5.2-0.8-5.6-2.5c1.2-1.7,3-10.1,5.6-25.4c2.6-15.3,4.7-27.2,6.4-35.8
		c1.7-8.6,3.5-15.9,5.4-21.7c1.9-5.9,3.8-8.8,5.6-8.8c1.8,0,3.1,0.4,4.1,1.1c0,3,0.8,11.2,2.5,24.5c1.7,13.3,2.5,21.9,2.5,25.8
		c0,3.9,0.4,10.4,1.3,19.5c0.9,9.1,1.3,15.9,1.3,20.4C374.4,123.5,373,124.9,370.2,124.9z M364.8,83.5c-0.7-7.5-1.4-14.7-2-21.5
		c-0.6-6.8-0.9-10.9-0.9-12.3c0-1.4,0-2.2,0.1-2.4c-1.3,1.4-3.2,9-5.7,22.8c-2.5,13.8-3.8,22.6-4,26.2c3.5,1,6.5,1.4,8.8,1.4
		c2.4,0,4.1-0.1,5.1-0.4C366,95.6,365.6,91,364.8,83.5z"/>
	<path d="M383.3,96.2L382.9,47c0-5.5,0.1-11,0.2-16.4l3.5-2c2.5,0.2,5.4,6.9,8.6,20.2c2.6,10.9,4.7,20.6,6.3,29.3
		c1.6,8.7,2.5,13.4,2.7,14.1c0.6-2.7,1.7-7.6,3.2-14.6c1.6-7,2.7-12.5,3.5-16.4c2.3-11.4,3.7-21.5,4.3-30.3v-0.7
		c0.2-1.1,0.7-1.9,1.5-2.6c0.9-0.7,1.8-1,2.7-1s1.7,0.3,2.3,1c0.6,0.7,0.9,1.4,0.9,2.2c0,10.1,0.4,25.3,1.1,45.5
		c0.8,20.2,1.1,35.4,1.1,45.5c0,2-0.5,3.8-1.6,5.3c-1.1,1.5-2.1,2.2-3.1,2.2c-2.1,0-3.1-1.7-3.1-5l-0.5-53.5v-6.4
		c-0.6,3.3-1.9,9-3.9,17.1c-2,8.2-3.3,14.4-3.9,18.8v0.8c-0.1,0.3-0.2,1.1-0.4,2.4c-0.2,1.2-0.3,2.3-0.5,3.1
		c-0.2,0.8-0.5,1.7-0.8,2.7c-0.8,2-2.1,3-3.9,3c-3,0-4.5-3.9-4.5-11.8c0-7.8-1.9-18.7-5.7-32.8c-1.9-7-3.1-11.8-3.7-14.3
		c-0.2,6.8-0.2,11.9-0.2,15.3l1.1,52.2c0,1.8-0.6,3.4-1.9,4.8c-2.2,0-3.7-0.7-4.4-2.1c-0.8-1.4-1.1-3.3-1.1-5.7L383.3,96.2z"/>
	<path d="M447.9,35.6l-2.2-0.1c-0.8,0-1.4,0.2-1.8,0.5c-0.4,0.4-0.6,1-0.6,2.1c0,8.3,0.5,20.6,1.5,37.1s1.6,28.9,1.6,37.1v4.9
		c0.9-0.1,1.7-0.2,2.6-0.2c3.5,0,5.3,1.5,5.3,4.5v0.7l-3.2,2.2l-8.6,0.3c-7.3,0-11-1.3-11-3.8c0-2,1.3-3,3.8-3l2.7,0.2
		c1.2,0,1.9-1,1.9-3c0-6.5-0.4-16.3-1.2-29.4c-0.8-13-1.2-22.8-1.2-29.4l0.2-13c0-2.7-0.1-5.1-0.3-7.1c-1.1,0.4-2.1,0.6-3,0.6
		c-2,0-3-1-3-3c0-1,0.6-1.9,1.9-2.7c1.3-0.8,2.9-1.3,4.8-1.6c3.6-0.6,6.2-0.9,7.9-0.9c1.7,0,2.9,0.3,3.7,1c0.7,0.7,1.1,1.5,1.1,2.4
		c0,0.9-0.3,1.7-0.8,2.4C449.5,35.2,448.8,35.6,447.9,35.6z"/>
	<path d="M474.2,78.5l-3.2-0.1c-1.2,0-2.1,0.3-2.6,0.9v39.2c4.3-0.2,6.7-0.4,7.1-0.4c4.8,0,7.3,1.1,7.3,3.3v0.4
		c-0.6,1.2-1.6,2-3,2.7s-2.6,1-3.7,1.1c-1.1,0.1-2.5,0.1-4.2,0.1h-4c-3.1,0-5.1-0.6-5.8-1.9c-0.3-0.6-0.5-1.3-0.5-2.3V47.8
		c0-1.4-0.3-3.6-0.9-6.4c-0.6-2.9-0.9-5-0.9-6.5v-0.4c1.4-2.3,2.5-3.8,3.2-4.5l9.4-1.1c1.3,0,2.6,0.4,3.9,1.1c1.3,0.8,2,1.8,2,3
		c0,2.5-1.9,3.8-5.8,3.8l-3.7-0.1c-0.6,0-1.1,0-1.4,0.1l1,21c0,1.7-0.1,4.2-0.3,7.4c-0.2,3.2-0.3,5.6-0.3,7.1
		c0.5-0.1,1.1-0.2,1.9-0.4c1.7-0.5,3.1-0.7,4.1-0.7c1,0,1.8,0.4,2.6,1.1c0.8,0.7,1.1,1.6,1.1,2.5s-0.3,1.9-0.9,2.7
		C476,78.1,475.2,78.5,474.2,78.5z"/>
	<path d="M488.6,58.4l0.9-23.3v-0.8c0-4.2,0.9-6.3,2.8-6.3c1.7,0,4,3.9,6.8,11.8c5.2,14.3,11.5,37.8,18.7,70.6l0.1,0.6l0.5-44.3
		V29.2c0.5-2.1,1.9-3.2,4.2-3.2s3.4,1.7,3.4,5v0.7c-0.5,1-0.7,2.3-0.7,3.7l-0.8,46.9v38.8c0,1.3-0.4,2.5-1.1,3.8
		c-0.7,1.2-1.6,1.9-2.6,1.9c-1.8,0-5.3-8.7-10.4-26.1c-5.2-17.4-10.3-36.2-15.3-56.2v41.7c0,4.1,0.3,10.1,0.9,18.1
		c0.6,8,0.9,14.1,0.9,18.1c0,0.8-0.5,1.4-1.4,2c-1,0.5-2.2,0.8-3.6,0.8c-1.5,0-2.2-0.7-2.2-2l0.6-9.1c0-4.4-0.3-11.5-0.8-21.3
		c-0.5-9.8-0.8-15.9-0.8-18V58.4z"/>
	<path d="M550,51.2l-0.2,16.4l1.1,29.2l1.1,22.8c0,4.1-1.2,6.2-3.7,6.2c-1.4,0-2.4-0.7-3.1-2s-1-2.8-1-4.4l1-20.3
		c0-4.4-0.3-11-0.9-19.8c-0.6-8.8-0.9-15.4-0.9-19.8l0.2-11.1c0-6.1-0.4-10-1.2-11.8l-6.9,0.7c-1.1,0-2-0.3-2.9-1
		c-0.8-0.6-1.3-1.5-1.3-2.5c0-1,1-1.9,3-2.6c2.1-0.7,4.5-1.3,7.4-1.6c5.1-0.6,9.4-0.9,12.8-0.9c1,0,2,0.3,2.8,1
		c0.8,0.7,1.3,1.5,1.3,2.6c0,1-0.4,1.9-1.1,2.4c-0.7,0.6-1.7,0.9-2.7,0.9l-4.5-0.2c-0.6,0-1,0-1.3,0.1C549.7,40.5,550,45.7,550,51.2
		z"/>
	<path d="M589.6,124.9c-2.6,0-3.9-1.1-3.9-3.3v-16.6c-1.2-0.8-3.4-1.5-6.5-2.1c-3.1-0.6-5.9-1-8.3-1.1c-0.9,1.5-1.6,3.6-2.1,6.4
		c-0.6,2.8-1.1,5.6-1.7,8.5c-0.6,2.9-1.4,5.1-2.4,6.8c-3.3,0-5.2-0.8-5.6-2.5c1.2-1.7,3-10.1,5.6-25.4c2.6-15.3,4.7-27.2,6.4-35.8
		c1.7-8.6,3.5-15.9,5.4-21.7c1.9-5.9,3.8-8.8,5.6-8.8c1.8,0,3.1,0.4,4.1,1.1c0,3,0.8,11.2,2.5,24.5c1.7,13.3,2.5,21.9,2.5,25.8
		c0,3.9,0.4,10.4,1.3,19.5c0.9,9.1,1.3,15.9,1.3,20.4C593.8,123.5,592.4,124.9,589.6,124.9z M584.2,83.5c-0.7-7.5-1.4-14.7-2-21.5
		c-0.6-6.8-0.9-10.9-0.9-12.3c0-1.4,0-2.2,0.1-2.4c-1.3,1.4-3.2,9-5.7,22.8c-2.5,13.8-3.8,22.6-4,26.2c3.5,1,6.5,1.4,8.8,1.4
		c2.4,0,4.1-0.1,5.1-0.4C585.4,95.6,585,91,584.2,83.5z"/>
	<path d="M599.9,123.5c0-2.3,1-3.4,2.9-3.4c1,0,2.2,0.3,3.8,1c1.5,0.6,2.9,1,4,1c1.1,0,2.4-0.7,3.7-2.2c1.3-1.4,2.4-3.2,3.1-5.4
		c1.5-4.4,2.3-8.3,2.3-11.9c0-3.5-0.6-7.3-1.9-11.4c-1.2-4.1-2.8-7.9-4.5-11.4c-1.8-3.6-3.6-7.1-5.4-10.7
		c-4.3-8.5-6.4-16.2-6.4-23.2c0-6.6,2-11.8,6.3-15.6c2.2-2,4.9-3,7.9-3c1.5,0,3,0.4,4.5,1.3c1.4,0.8,2.5,2,3,3.3l-2.2,2.7
		c-2.1,0-3.8-0.4-5-1.2c-1.6,0.2-2.9,0.9-4.1,2.2c-2.1,2.4-3.2,5.4-3.2,9c0,3.6,0.5,7.1,1.4,10.4c0.9,3.4,2,6.4,3.4,9.1
		c1.4,2.7,2.8,5.6,4.4,8.7c1.6,3.1,3.1,6.2,4.5,9.1c3.2,6.7,4.8,13.9,4.8,21.7c0,5.5-1.3,10.7-4.2,15.8c-1.3,2.4-3.1,4.4-5.5,5.9
		c-2.3,1.6-4.9,2.3-7.8,2.3c-3.1,0-5.5-0.5-7.2-1.4C600.8,125.5,599.9,124.5,599.9,123.5z"/>
</g>
<g>
	<path style="fill:none;" d="M192.1,200.2c3.1-5.7,6.3-11.3,9.5-17C198.4,188.8,195.2,194.5,192.1,200.2z"/>
	<path style="fill:#4F4E4F;" d="M304.5,273.6L251,243.9l-30.3,53.4c107,61.3,179.4,65.3,200.6,38.4l-105.8-61.5
		C312.7,275.7,308.8,275.9,304.5,273.6z"/>
	<path style="fill:#EAA01C;" d="M68.4,152.1c1.2,5.6,4.5,10.3,9.6,12.8c18.7,9.4,37.3,18.7,55.8,28.1c16.2,8.1,32.4,16.3,48.6,24.4
		c0,0,0,0,0,0c2.9-5.2,5.8-10.3,8.6-15.5l-119-69.1c-0.2,0.4-0.5,0.8-0.7,1.2C68.1,140,67.2,146.4,68.4,152.1z"/>
	<path style="fill:#686868;" d="M254,238.5l-49-28.4c-1.2,2.1-2.4,4.3-3.6,6.4l49.5,27.4l53.5,29.7c4.4,2.3,8.3,2.1,11,0.6
		L254,238.5z"/>
	<path style="fill:#EAAE44;" d="M205.1,210.1l-13.9-8.1c-2.9,5.2-5.7,10.3-8.6,15.5c-0.7,1.2-1.3,2.4-2,3.6
		c-2.1,3.7-0.5,8.2,3.6,10.2c4.1,1.9,9,0.5,11-3.1c2.1-3.9,4.3-7.8,6.4-11.6l0,0C202.7,214.4,203.9,212.2,205.1,210.1z"/>
	<polygon style="fill:#FFC654;" points="201.6,183.2 201.6,183.2 201.6,183.2 	"/>
	<path style="fill:#FFC654;" d="M192.1,200.2c-0.3,0.6-0.7,1.2-1,1.8l0,0C191.5,201.4,191.8,200.8,192.1,200.2z"/>
	<path style="fill:#FFC654;" d="M191.1,202c-2.9,5.2-5.7,10.3-8.6,15.5C185.4,212.3,188.3,207.2,191.1,202L191.1,202z"/>
	<path style="fill:#FFC654;" d="M205.1,210.1c0.4-0.7,0.8-1.4,1.2-2.1C205.9,208.7,205.5,209.4,205.1,210.1L205.1,210.1z"/>
	<path style="fill:#FFC654;" d="M205.1,210.1c-1.2,2.1-2.4,4.3-3.6,6.4l0,0C202.7,214.4,203.9,212.2,205.1,210.1L205.1,210.1z"/>
</g>
<polygon style="opacity:0.25;fill:#18A1B7;" points="707.7,299 704.3,324.2 719.4,303.4 740.6,287.5 746.3,203.9 728.3,209 
	562.4,353.9 664.2,380 725.1,217.7 742.5,210.8 730.8,287.3 "/>
</svg>
