<?xml version="1.0" encoding="utf-8"?>
<!-- Generator: Adobe Illustrator 18.0.0, SVG Export Plug-In . SVG Version: 6.00 Build 0)  -->
<!DOCTYPE svg PUBLIC "-//W3C//DTD SVG 1.1//EN" "http://www.w3.org/Graphics/SVG/1.1/DTD/svg11.dtd">
<svg version="1.1" id="Layer_1" xmlns="http://www.w3.org/2000/svg" xmlns:xlink="http://www.w3.org/1999/xlink" x="0px" y="0px"
	 viewBox="0 0 220.5 411" style="enable-background:new 0 0 220.5 411;" xml:space="preserve">
<g>
	<path style="fill:#010101;" d="M201.4,393.4H23.8c-3,0-5.4-2.4-5.4-5.4V23c0-3,2.4-5.4,5.4-5.4h177.6c3,0,5.4,2.4,5.4,5.4v365
		C206.8,391,204.4,393.4,201.4,393.4z"/>
	<rect x="23.8" y="47" style="fill:#FFFFFF;" width="178.1" height="315.9"/>
	<path style="fill:#535353;" d="M130.6,35.8H93c-0.7,0-1.3-0.6-1.3-1.3l0,0c0-0.7,0.6-1.3,1.3-1.3h37.6c0.7,0,1.3,0.6,1.3,1.3l0,0
		C131.9,35.2,131.3,35.8,130.6,35.8z"/>
</g>
<g>
	<g>
		<rect x="23.3" y="47" style="fill:#027FCC;" width="179" height="11.1"/>
		<g>
			<g>
				<circle style="fill:#FFFFFF;" cx="169.4" cy="53.5" r="0.6"/>
				<path style="fill:#FFFFFF;" d="M170.8,52.1C170.8,52.1,170.8,52,170.8,52.1L170.8,52.1C170.7,52,170.7,52,170.8,52.1
					c-0.8-0.8-2-0.7-2.7,0l-0.1,0.1l-0.1,0.1c-0.1,0.1-0.1,0.4,0,0.5c0.1,0.1,0.4,0.1,0.5,0l0.2-0.2c0.5-0.5,1.2-0.5,1.7,0l0.1,0.1
					c0.1,0.1,0.4,0.1,0.5,0c0.1-0.1,0.1-0.2,0.1-0.3c0-0.1,0-0.2-0.1-0.3L170.8,52.1z"/>
				<path style="fill:#FFFFFF;" d="M171.8,51.3l-0.1-0.1c0,0,0,0,0,0l-0.1-0.1c0,0,0,0-0.1,0c-1.2-1.1-3.1-1.1-4.3,0.1c0,0,0,0,0,0
					l-0.2,0.2c-0.1,0.1-0.1,0.3,0,0.5c0.1,0.1,0.3,0.1,0.5,0l0.2-0.2c0,0,0,0,0,0c1-0.9,2.5-0.9,3.5,0l0.2,0.2
					c0.1,0.1,0.3,0.1,0.5,0C171.9,51.7,171.9,51.5,171.8,51.3z"/>
			</g>
		</g>
		<text transform="matrix(1 0 0 1 27.4147 54.5673)" style="fill:#FFFFFF; font-family:'Roboto-Regular'; font-size:5.3972;">10:30 AM</text>
		<text transform="matrix(1 0 0 1 174.7828 54.0375)" style="fill:#FFFFFF; font-family:'Roboto-Regular'; font-size:5.1075;">85%</text>
		<path style="fill:#F8F8F6;" d="M189.4,54.5c-0.3,0-0.5-0.2-0.5-0.4l0-3.3c0-0.2,0.2-0.4,0.5-0.4l7.7,0c0.3,0,0.5,0.2,0.5,0.4
			l0,0.7l0.6,0l0,2l-0.6,0l0,0.7c0,0.2-0.2,0.4-0.5,0.4L189.4,54.5z M197.2,50.6l-8,0l0,3.6l8,0L197.2,50.6z M189.5,51l5.8,0l0,2.9
			l-5.8,0L189.5,51z"/>
	</g>
	<g>
		<rect x="23.3" y="58" style="fill:#0084FF;" width="179" height="32.5"/>
		<g>
			<polyline style="fill:none;stroke:#FFFFFF;stroke-linecap:round;stroke-linejoin:round;stroke-miterlimit:10;" points="
				33.1,72.1 29.6,75.2 33,78.2 			"/>
			
				<line style="fill:none;stroke:#FFFFFF;stroke-linecap:round;stroke-linejoin:round;stroke-miterlimit:10;" x1="29.8" y1="75.2" x2="38.7" y2="75.2"/>
		</g>
		<g>
			<g>
				<text transform="matrix(1 0 0 1 65.7946 76.0283)" style="fill:#FFFFFF; font-family:'Roboto-Regular'; font-size:9.3144;">Huertito</text>
				<text transform="matrix(1 0 0 1 66.6764 82.1767)" style="fill:#FFFFFF; font-family:'Quicksand-Regular'; font-size:4.7939;">online</text>
				<g>
					<g>
						<rect x="191.1" y="67.8" style="fill:#FFFFFF;" width="2.6" height="2.9"/>
					</g>
					<g>
						<rect x="191.1" y="72.6" style="fill:#FFFFFF;" width="2.6" height="2.9"/>
					</g>
					<g>
						<rect x="191.1" y="77.7" style="fill:#FFFFFF;" width="2.6" height="2.9"/>
					</g>
				</g>
			</g>
		</g>
		<g>
			<defs>
				<circle id="SVGID_1_" cx="53.4" cy="74.6" r="9.6"/>
			</defs>
			<use xlink:href="#SVGID_1_"  style="overflow:visible;fill:#FFFFFF;"/>
			<clipPath id="SVGID_2_">
				<use xlink:href="#SVGID_1_"  style="overflow:visible;"/>
			</clipPath>
			<g style="clip-path:url(#SVGID_2_);">
				<g>
					<path d="M63.6,68.1c-0.6-0.9-1.5-1.5-2.5-0.6c-0.4,0.3-0.7,0.6-1.1,0.9c-0.6,0.4-1,0.2-1.2-0.5c-0.2-0.7-0.7-1-1.3-0.9
						c-1.4,0.3-2.6,1-3.3,2.4c-0.1,0.2-0.2,0.4-0.3,0.7c0,0-0.1,0-0.1,0c0-0.1,0-0.3,0-0.4c0-0.5-0.2-0.8-0.7-0.9
						c-0.4-0.1-0.3-0.3-0.2-0.5c0.1-0.1,0.2-0.3,0.3-0.4c0.3-0.4,0.6-0.8,0.8-1.2c0.3-0.5,0.2-0.7-0.4-0.8c-0.5-0.1-1.1-0.2-1.6-0.2
						c-0.3,0-0.4-0.2-0.4-0.5c0.1-0.4,0.1-0.8,0.2-1.2c0.1-0.4,0-0.9-0.3-1.1c-0.3-0.2-0.8-0.2-1.1-0.1c-0.3,0-0.6,0.3-0.9,0.5
						c-0.6,0.4-1.2,0.9-1.8,1.3c-0.4,0.2-0.6,0.6-0.4,1c0.1,0.4,0.3,0.8,0.6,1.2c0.4,0.5,0.4,0.9,0,1.4c-0.2,0.2-0.4,0.4-0.6,0.6
						c-0.4,0.5-0.3,1.3,0.3,1.6c0.1,0,0.1,0.1,0.2,0.2c-0.1,0-0.3,0.1-0.3,0.1c-0.2-0.2-0.4-0.4-0.5-0.7c-0.1-0.3-0.1-0.7-0.3-1
						c-0.1-0.3-0.4-0.5-0.8-0.5c-0.7,0.1-1.2,0.8-0.9,1.5c0.1,0.4,0.1,0.5-0.3,0.6c-0.4,0.1-0.8,0.3-1.2,0.5
						c-0.4,0.2-0.6,0.9-0.4,1.3c0.3,0.4,0.7,0.3,1.1,0.2c0.4-0.2,0.5,0,0.5,0.4c0,0.2-0.1,0.3-0.1,0.5c0,1,0.6,1.4,1.5,1
						c0.2-0.1,0.3-0.1,0.2,0.2c-0.1,0.8,0,1.6,0.3,2.3c0.3,0.7,0.4,1.5,1.1,2.1c0,0,0,0.2,0,0.2c-0.4,0.4-0.4,0.8-0.1,1.3
						c0.7,1.3,1.4,2.7,2,4c0.2,0.5,0.6,0.7,1.1,0.7c0.5,0,1,0,1.6,0c1.1,0,2.2,0,3.3,0c0.8,0,1.3-0.3,1.6-1.1
						c0.3-0.7,0.7-1.4,1.1-2.1c0.4-0.8,1.1-1.6,0.5-2.6c0,0,0.1-0.2,0.2-0.2c0.4,0,0.5-0.2,0.6-0.5c0.1-0.3,0.2-0.5,0.4-0.9
						c0,0,0,0,0,0c0.2-0.5,0.3-1.1,0.4-1.5c0.1-0.6,0.1-1.2,0.1-1.9c0-0.1,0-0.4-0.1-0.4c-0.2-0.2-0.5-0.5-0.8-0.5
						c-0.5,0-0.6,0-0.7-0.5c0-0.1,0-0.2,0-0.2c0.1,0,0.2,0,0.3,0c0.1,0,0.2,0.1,0.3,0.2c0.4,0.4,1,0.5,1.5,0.5
						c0.8-0.1,1.6-0.6,1.2-1.4c-0.4-0.7-0.1-1.3,0.4-1.8c0.4-0.4,0.8-0.8,1.2-1.2C63.8,68.7,63.8,68.4,63.6,68.1z M53.6,70.7
						c0,0,0.3,0.2,0.3,0.2c0,0.2-0.1,0.5-0.2,0.7c-0.1,0.2-0.2,0.4-0.3,0.5c0.2,0.1,0.5,0.1,0.7,0.2c0.2,0,0.4,0,0.5,0.1
						c0.3,0.1,0.4,0.4,0.3,0.6c-0.1,0.1-0.4,0.1-0.6,0.2c-0.1,0-0.3-0.1-0.4,0c-0.1,0.1-0.1,0.3-0.1,0.4c0,0.2,0.1,0.6,0,0.6
						c-0.4,0.1-0.7,0.5-1.2,0.3c-0.4-0.2-0.9-0.4-1.3-0.6c-0.2-0.1-0.2-0.3-0.3-0.5c-0.1-0.3-0.2-0.5-0.3-0.8
						c0.1-0.3,0.1-0.5,0.3-0.7c0.2-0.4,0.6-0.5,0.9-0.3c0.6,0.4,0.8,0.3,1.2-0.3C53.2,71,53.4,70.8,53.6,70.7z M47.5,68.8
						c0.2-0.3,0.4-0.5,0.6-0.7c0.5-0.6,0.5-1,0-1.7c-0.1-0.2-0.2-0.3-0.3-0.5c-0.3-0.7-0.2-1.1,0.4-1.5c0.5-0.3,0.9-0.7,1.3-1
						c0.2-0.2,0.4-0.4,0.7-0.4c0.3-0.1,0.7-0.1,0.9,0c0.2,0.1,0.3,0.6,0.3,0.9c0,0.4-0.2,0.8-0.2,1.1c-0.1,0.6,0.1,0.8,0.7,0.9
						c0.4,0,0.9,0,1.3,0.1c0.5,0.1,0.6,0.3,0.3,0.7c-0.2,0.3-0.4,0.5-0.6,0.8c-0.3,0.4-0.5,0.7-0.7,1.2c-0.2,0.4,0,0.5,0.4,0.4
						c0.5-0.1,0.8,0.2,0.7,1.1c-0.2,0.3-0.4,0.8-0.7,1.2c0,0.1-0.3,0.1-0.3,0c-0.5-0.4-1-0.4-1.5,0.1c0,0-0.2,0.1-0.2,0.1
						c-0.3-0.4-1.1-0.5-1-1.2c0-0.4-0.4-0.6-0.9-0.5c-0.3,0-0.7,0.1-1,0C47.3,69.5,47.2,69.2,47.5,68.8z M45.8,73.8
						c-0.2,0.1-0.5,0.2-0.7,0.1c-0.2-0.1-0.3-0.4-0.3-0.6c-0.1-0.3,0-0.6,0-0.9c0-0.5-0.3-0.6-0.7-0.5C44,71.9,44,72,43.9,72
						c-0.2,0-0.4,0-0.6-0.1c0.1-0.2,0.1-0.6,0.3-0.7c0.3-0.2,0.7-0.3,1-0.5c0.8-0.2,0.8-0.4,0.6-1.1c-0.1-0.2,0-0.5,0.1-0.7
						c0.4-0.5,0.8-0.4,1,0.2c0.1,0.2,0.1,0.5,0.1,0.8c0.1,0.2,0.1,0.4,0.3,0.6c0.3,0.5,0.7,0.6,1.1,0.2c0.2-0.2,0.5-0.4,0.8-0.6
						c0.4-0.3,0.7-0.1,0.7,0.4c0,0.4,0.1,0.8,0.6,0.9c0.1,0,0.2,0.2,0.3,0.4c0.2,0.5,0.3,1,0.4,1.5c0,0.2,0.1,0.4-0.3,0.3
						c-0.4-0.1-0.9,0.2-1,0.6c-0.1,0.2-0.1,0.4-0.2,0.6c-0.1,0.1-0.2,0.1-0.3,0.2c0-0.1-0.1-0.3-0.1-0.4c0-0.1,0.1-0.3,0.2-0.5
						c-0.1,0.1-0.2,0.1-0.3,0.1c0-0.2,0-0.5-0.2-0.7c-0.2-0.4,0.2-0.4,0.3-0.5c0-0.1,0.1-0.1,0.2-0.2c0.2-0.1,0.4-0.3,0.6-0.4
						c0.1,0.2,0.3,0.4,0.4,0.6c0,0.1,0.1,0.1,0.1,0.2c0.2-0.4,0-1-0.2-1.2c-0.4-0.2-0.7,0-1,0.3c-0.3,0.3-0.5,0.5-0.8,0.7
						c-0.3,0.2-0.4,0.3-0.1,0.5c0.1,0.1,0.1,0.3,0.2,0.4c-0.2,0-0.3,0-0.5-0.1C46.8,73.1,46.8,73.1,45.8,73.8z M47.6,77.2
						c-0.4-1.1-0.7-2.2-0.5-3.3c0.4,0.2,0.7,0.4,1,0.6c0.1,0.1,0.2,0.3,0.3,0.4c0.2,0.2,0.5,0.5,0.7,0.5c0.2,0,0.4-0.4,0.5-0.6
						c0.3-0.7,0.3-0.6,1.1-0.7c0.8-0.1,1.3,0.4,1.9,0.7c0.3,0.2,0.1,0.3,0,0.4c-0.7,0.6-1.4,1.2-2.2,1.8c-0.5,0.3-1.1,0.5-1.7,0.7
						C48.1,77.9,47.8,77.8,47.6,77.2z M57.8,81.4c-0.5,0.7-0.9,1.5-1.3,2.3c-0.2,0.5-0.7,0.6-1.1,0.6c-1.2,0-2.3,0.1-3.6,0.1
						c-0.1,0-0.2,0-0.3,0c-1.2,0.2-1.8-0.6-2.3-1.5c-0.4-0.8-0.7-1.5-1.1-2.3c-0.2-0.4-0.1-0.8,0.1-1.2c0.4-0.9,1.2-1.3,2.1-1.7
						c1.2-0.6,2.2-1.5,3.1-2.5c0.2-0.3,0.4-0.3,0.6,0c0.8,1.5,2,2.6,3.5,3.3c0.3,0.1,0.5,0.3,0.5,0.7c0,0.1,0,0.2,0.1,0.3
						C58.4,80.1,58.2,80.8,57.8,81.4z M58.9,74.1c0.6-0.2,0.9,0.1,0.8,0.7c-0.1,0.5-0.1,1-0.2,1.5c-0.2,0.6-0.3,1.2-0.6,1.8
						c-0.1,0.4-0.4,0.5-0.8,0.3c-1.2-0.5-2.2-1.3-3-2.4c-0.2-0.3-0.3-0.7-0.4-1c0.3,0,0.7-0.1,0.9-0.1c0.3,0,0.4,0,0.6,0.1
						c0.3,0.1,0.5-0.1,0.7-0.3c0.1-0.1,0.3-0.3,0.5-0.3C58,74.2,58.5,74.2,58.9,74.1z M63.2,68.9c-0.3,0.3-0.7,0.6-1.1,1
						c-0.7,0.6-0.9,1.3-0.5,2.2c0.2,0.4,0,0.6-0.3,0.8c-0.6,0.2-1.1,0.2-1.6-0.1c-0.4-0.3-0.9-0.6-1.4-0.4c-0.1,0-0.3,0.1-0.3,0.2
						c0,0.1,0.1,0.2,0.2,0.3c0.1,0.1,0.2,0.2,0.2,0.3c0.2,0.4,0,0.8-0.6,0.7c-0.5-0.3-0.8,0-1.1,0.5c0,0.1-0.2,0.2-0.3,0.2
						c-0.6,0-1.3,0-1.8-0.6c-0.2-0.2-0.1-0.3,0.1-0.4c0.5-0.2,0.5-0.6,0.5-1c0-0.4-0.4-0.6-0.7-0.6c-0.6-0.1-0.5-0.1-0.3-0.6
						c0.1-0.3,0-0.6,0.1-0.8c0-0.1-0.1-0.2,0-0.3c0.3-0.9,0.8-1.8,1.7-2.3c0.4-0.2,0.8-0.5,1.2-0.6c0.7-0.2,1.1,0,1.4,0.7
						c0.2,0.7,0.8,1,1.5,0.6c0.5-0.3,0.9-0.6,1.3-0.9c0.7-0.5,1.4-0.5,1.9,0.2C63.5,68.3,63.5,68.6,63.2,68.9z"/>
				</g>
				<path style="fill:#B9D76C;" d="M53.6,70.7c0,0,0.3,0.2,0.3,0.2c0,0.2-0.1,0.5-0.2,0.7c-0.1,0.2-0.2,0.4-0.3,0.5
					c0.2,0.1,0.5,0.1,0.7,0.2c0.2,0,0.4,0,0.5,0.1c0.3,0.1,0.4,0.4,0.3,0.6c-0.1,0.1-0.4,0.1-0.6,0.2c-0.1,0-0.3-0.1-0.4,0
					c-0.1,0.1-0.1,0.3-0.1,0.4c0,0.2,0.1,0.6,0,0.6c-0.4,0.1-0.7,0.5-1.2,0.3c-0.4-0.2-0.9-0.4-1.3-0.6c-0.2-0.1-0.2-0.3-0.3-0.5
					c-0.1-0.3-0.2-0.5-0.3-0.8c0.1-0.3,0.1-0.5,0.3-0.7c0.2-0.4,0.6-0.5,0.9-0.3c0.6,0.4,0.8,0.3,1.2-0.3
					C53.2,71,53.4,70.8,53.6,70.7z"/>
				<path style="fill:#B9D76C;" d="M47.5,68.8c0.2-0.3,0.4-0.5,0.6-0.7c0.5-0.6,0.5-1,0-1.7c-0.1-0.2-0.2-0.3-0.3-0.5
					c-0.3-0.7-0.2-1.1,0.4-1.5c0.5-0.3,0.9-0.7,1.3-1c0.2-0.2,0.4-0.4,0.7-0.4c0.3-0.1,0.7-0.1,0.9,0c0.2,0.1,0.3,0.6,0.3,0.9
					c0,0.4-0.2,0.8-0.2,1.1c-0.1,0.6,0.1,0.8,0.7,0.9c0.4,0,0.9,0,1.3,0.1c0.5,0.1,0.6,0.3,0.3,0.7c-0.2,0.3-0.4,0.5-0.6,0.8
					c-0.3,0.4-0.5,0.7-0.7,1.2c-0.2,0.4,0,0.5,0.4,0.4c0.5-0.1,0.8,0.2,0.7,1.1c-0.2,0.3-0.4,0.8-0.7,1.2c0,0.1-0.3,0.1-0.3,0
					c-0.5-0.4-1-0.4-1.5,0.1c0,0-0.2,0.1-0.2,0.1c-0.3-0.4-1.1-0.5-1-1.2c0-0.4-0.4-0.6-0.9-0.5c-0.3,0-0.7,0.1-1,0
					C47.3,69.5,47.2,69.2,47.5,68.8z"/>
				<path style="fill:#B9D76C;" d="M45.8,73.8c-0.2,0.1-0.5,0.2-0.7,0.1c-0.2-0.1-0.3-0.4-0.3-0.6c-0.1-0.3,0-0.6,0-0.9
					c0-0.5-0.3-0.6-0.7-0.5C44,71.9,44,72,43.9,72c-0.2,0-0.4,0-0.6-0.1c0.1-0.2,0.1-0.6,0.3-0.7c0.3-0.2,0.7-0.3,1-0.5
					c0.8-0.2,0.8-0.4,0.6-1.1c-0.1-0.2,0-0.5,0.1-0.7c0.4-0.5,0.8-0.4,1,0.2c0.1,0.2,0.1,0.5,0.1,0.8c0.1,0.2,0.1,0.4,0.3,0.6
					c0.3,0.5,0.7,0.6,1.1,0.2c0.2-0.2,0.5-0.4,0.8-0.6c0.4-0.3,0.7-0.1,0.7,0.4c0,0.4,0.1,0.8,0.6,0.9c0.1,0,0.2,0.2,0.3,0.4
					c0.2,0.5,0.3,1,0.4,1.5c0,0.2,0.1,0.4-0.3,0.3c-0.4-0.1-0.9,0.2-1,0.6c-0.1,0.2-0.1,0.4-0.2,0.6c-0.1,0.1-0.2,0.1-0.3,0.2
					c0-0.1-0.1-0.3-0.1-0.4c0-0.1,0.1-0.3,0.2-0.5c-0.1,0.1-0.2,0.1-0.3,0.1c0-0.2,0-0.5-0.2-0.7c-0.2-0.4,0.2-0.4,0.3-0.5
					c0-0.1,0.1-0.1,0.2-0.2c0.2-0.1,0.4-0.3,0.6-0.4c0.1,0.2,0.3,0.4,0.4,0.6c0,0.1,0.1,0.1,0.1,0.2c0.2-0.4,0-1-0.2-1.2
					c-0.4-0.2-0.7,0-1,0.3c-0.3,0.3-0.5,0.5-0.8,0.7c-0.3,0.2-0.4,0.3-0.1,0.5c0.1,0.1,0.1,0.3,0.2,0.4c-0.2,0-0.3,0-0.5-0.1
					C46.8,73.1,46.8,73.1,45.8,73.8z"/>
				<path style="fill:#B9D76C;" d="M63.2,68.9c-0.3,0.3-0.7,0.6-1.1,1c-0.7,0.6-0.9,1.3-0.5,2.2c0.2,0.4,0,0.6-0.3,0.8
					c-0.6,0.2-1.1,0.2-1.6-0.1c-0.4-0.3-0.9-0.6-1.4-0.4c-0.1,0-0.3,0.1-0.3,0.2c0,0.1,0.1,0.2,0.2,0.3c0.1,0.1,0.2,0.2,0.2,0.3
					c0.2,0.4,0,0.8-0.6,0.7c-0.5-0.3-0.8,0-1.1,0.5c0,0.1-0.2,0.2-0.3,0.2c-0.6,0-1.3,0-1.8-0.6c-0.2-0.2-0.1-0.3,0.1-0.4
					c0.5-0.2,0.5-0.6,0.5-1c0-0.4-0.4-0.6-0.7-0.6c-0.6-0.1-0.5-0.1-0.3-0.6c0.1-0.3,0-0.6,0.1-0.8c0-0.1-0.1-0.2,0-0.3
					c0.3-0.9,0.8-1.8,1.7-2.3c0.4-0.2,0.8-0.5,1.2-0.6c0.7-0.2,1.1,0,1.4,0.7c0.2,0.7,0.8,1,1.5,0.6c0.5-0.3,0.9-0.6,1.3-0.9
					c0.7-0.5,1.4-0.5,1.9,0.2C63.5,68.3,63.5,68.6,63.2,68.9z"/>
				<path style="fill:#C3996B;" d="M47.6,77.2c-0.4-1.1-0.7-2.2-0.5-3.3c0.4,0.2,0.7,0.4,1,0.6c0.1,0.1,0.2,0.3,0.3,0.4
					c0.2,0.2,0.5,0.5,0.7,0.5c0.2,0,0.4-0.4,0.5-0.6c0.3-0.7,0.3-0.6,1.1-0.7c0.8-0.1,1.3,0.4,1.9,0.7c0.3,0.2,0.1,0.3,0,0.4
					c-0.7,0.6-1.4,1.2-2.2,1.8c-0.5,0.3-1.1,0.5-1.7,0.7C48.1,77.9,47.8,77.8,47.6,77.2z"/>
				<path style="fill:#C3996B;" d="M57.8,81.4c-0.5,0.7-0.9,1.5-1.3,2.3c-0.2,0.5-0.7,0.6-1.1,0.6c-1.2,0-2.3,0.1-3.6,0.1
					c-0.1,0-0.2,0-0.3,0c-1.2,0.2-1.8-0.6-2.3-1.5c-0.4-0.8-0.7-1.5-1.1-2.3c-0.2-0.4-0.1-0.8,0.1-1.2c0.4-0.9,1.2-1.3,2.1-1.7
					c1.2-0.6,2.2-1.5,3.1-2.5c0.2-0.3,0.4-0.3,0.6,0c0.8,1.5,2,2.6,3.5,3.3c0.3,0.1,0.5,0.3,0.5,0.7c0,0.1,0,0.2,0.1,0.3
					C58.4,80.1,58.2,80.8,57.8,81.4z"/>
				<path style="fill:#C3996B;" d="M58.9,74.1c0.6-0.2,0.9,0.1,0.8,0.7c-0.1,0.5-0.1,1-0.2,1.5c-0.2,0.6-0.3,1.2-0.6,1.8
					c-0.1,0.4-0.4,0.5-0.8,0.3c-1.2-0.5-2.2-1.3-3-2.4c-0.2-0.3-0.3-0.7-0.4-1c0.3,0,0.7-0.1,0.9-0.1c0.3,0,0.4,0,0.6,0.1
					c0.3,0.1,0.5-0.1,0.7-0.3c0.1-0.1,0.3-0.3,0.5-0.3C58,74.2,58.5,74.2,58.9,74.1z"/>
				<path d="M51.7,78.3c-0.1,0-0.2,0-0.3,0c-0.1,0-0.2,0-0.3,0.1c0.1,0.1,0.2,0.2,0.3,0.2c0,0,0.1,0,0.1,0c-0.1,0-0.1,0.1-0.2,0.1
					c-0.2,0.2-0.2,0.5,0,0.7c0.2,0.2,0.5,0.2,0.7,0c0.2-0.2,0.2-0.5,0-0.7c0,0-0.1-0.1-0.1-0.1c0.1,0,0.1,0,0.2-0.1
					c0.1,0,0.2-0.1,0.3-0.2c-0.1,0-0.2-0.1-0.3-0.1C51.9,78.3,51.8,78.3,51.7,78.3z"/>
				<path d="M55.9,78.4c-0.1,0-0.2,0-0.3,0c-0.1,0-0.2,0-0.3,0.1c-0.1,0-0.2,0.1-0.3,0.1c0.1,0.1,0.2,0.2,0.3,0.2c0,0,0,0,0.1,0
					c0,0-0.1,0-0.1,0.1c-0.2,0.2-0.2,0.5,0,0.7c0.2,0.2,0.5,0.2,0.7,0c0.2-0.2,0.2-0.5,0-0.7c0-0.1-0.1-0.1-0.2-0.1
					c0.1,0,0.2,0,0.2-0.1c0.1-0.1,0.2-0.1,0.3-0.2C56.2,78.4,56,78.4,55.9,78.4z"/>
				<path d="M53.5,80.3c0.1,0,0.2,0,0.3,0c0.1,0,0.2,0,0.3-0.1c0.1-0.1,0.2-0.1,0.3-0.3l0,0c-0.1,0-0.2,0-0.3,0l-0.3,0
					c-0.1,0-0.2,0-0.3,0c-0.1,0-0.2,0-0.3,0l0,0C53.3,80.2,53.4,80.3,53.5,80.3z"/>
			</g>
		</g>
	</g>
</g>
<line style="fill:#3A3A3A;" x1="55.8" y1="149" x2="53.9" y2="151"/>
<path style="fill:#0085FE;" d="M197.1,275.9H65.4c-4.5,0-8.1,3.1-8.1,6.9v24c0,3.8,3.6,6.9,8.1,6.9h115.3c4.5,0,8.1-3.1,8.1-6.9
	v-22.1L197.1,275.9z"/>
<path style="fill:#EAEAEA;" d="M35.5,195.4h118.3c4,0,7.3,3.8,7.3,8.4V259c0,4.7-3.2,8.4-7.3,8.4H50.2c-4,0-7.3-3.8-7.3-8.4v-52.8
	L35.5,195.4z"/>
<g>
	<rect x="66.6" y="288.9" style="fill:none;" width="114.7" height="27"/>
	<text transform="matrix(1 0 0 1 66.5515 294.1498)"><tspan x="0" y="0" style="fill:#FFFFFF; font-family:'Roboto-Regular'; font-size:7;">Ya termine de armar mi contenedor, </tspan><tspan x="0" y="8" style="fill:#FFFFFF; font-family:'Roboto-Regular'; font-size:7;">que sigue? </tspan></text>
</g>
<path style="fill:#EAEAEA;" d="M31.9,158.9h121.7c4.1,0,7.4,3.3,7.4,7.4v17c0,4.1-3.3,7.4-7.4,7.4H46.9c-4.1,0-7.4-3.3-7.4-7.4v-15
	L31.9,158.9z"/>
<rect x="51.6" y="167.9" style="fill:none;" width="98.4" height="18.3"/>
<text transform="matrix(1 0 0 1 51.6285 173.1488)"><tspan x="0" y="0" style="fill:#3C4447; font-family:'Roboto-Regular'; font-size:7;">Vamos a empezar armando tu </tspan><tspan x="0" y="8" style="fill:#3C4447; font-family:'Roboto-Regular'; font-size:7;">contenedor</tspan></text>
<path style="fill:#EAEAEA;" d="M31.9,119.1h121.7c4.1,0,7.4,3.3,7.4,7.4v17c0,4.1-3.3,7.4-7.4,7.4H46.9c-4.1,0-7.4-3.3-7.4-7.4v-15
	L31.9,119.1z"/>
<rect x="51.6" y="128.1" style="fill:none;" width="98.4" height="18.3"/>
<text transform="matrix(1 0 0 1 51.6285 133.308)"><tspan x="0" y="0" style="fill:#3C4447; font-family:'Roboto-Regular'; font-size:7;">Hola! Soy huertito! Te voy a </tspan><tspan x="0" y="8" style="fill:#3C4447; font-family:'Roboto-Regular'; font-size:7;">ayudar a cuidar de tu nuevo kit! </tspan></text>
<path style="fill:#EAEAEA;" d="M34.6,320.4h121.7c4.1,0,7.4,3.2,7.4,7.1v16.3c0,3.9-3.3,7.1-7.4,7.1H49.6c-4.1,0-7.4-3.2-7.4-7.1
	v-14.4L34.6,320.4z"/>
<rect x="55.1" y="326.9" style="fill:none;" width="98.4" height="16"/>
<text transform="matrix(1 0 0 1 55.1442 332.1494)"><tspan x="0" y="0" style="fill:#3C4447; font-family:'Roboto-Regular'; font-size:7;">Excelente! Vamos sembrar </tspan><tspan x="0" y="8" style="fill:#3C4447; font-family:'Roboto-Regular'; font-size:7;">unas semillas, estas listo?</tspan></text>
<circle style="fill:none;stroke:#FFFFFF;stroke-miterlimit:10;" cx="112.6" cy="378.6" r="4.1"/>
<path style="fill:none;stroke:#FFFFFF;stroke-miterlimit:10;" d="M60.7,374.7l-6.8,3.8c-0.1,0.1-0.1,0.2,0,0.3l6.8,3.8
	c0.1,0.1,0.2,0,0.2-0.1v-7.6C60.9,374.7,60.8,374.7,60.7,374.7z"/>
<path style="fill:none;stroke:#FFFFFF;stroke-miterlimit:10;" d="M168.3,382.6h-6.7c-0.3,0-0.6-0.3-0.6-0.6v-6.7
	c0-0.3,0.3-0.6,0.6-0.6h6.7c0.3,0,0.6,0.3,0.6,0.6v6.7C168.9,382.3,168.6,382.6,168.3,382.6z"/>
<g>
	<rect x="60.3" y="200.9" style="fill:#E0FFC0;" width="81.2" height="61"/>
	<g>
		<polygon style="fill:#A3794F;" points="85.6,221.2 78,235.5 92,255.2 110.5,255 123.7,235.5 115.6,219.1 		"/>
		<path style="opacity:0.62;fill:#A3794F;" d="M116.2,219.3l-30.7,2.1l-5.9,10.8c1.4,2.1,2.5,3.7,2.7,3.7c0.3,0,8.8-5.7,15.4-10.2
			c7.6,5.3,17.1,12.7,17.5,12.7c0.3,0,3-4,5.8-8.3L116.2,219.3z"/>
		<path style="fill:#BA8E63;" d="M82.6,213.7l33.3,0l10,6.7c0,0-10,16.2-10.6,16.2c-0.6,0-25.8-17.9-25.8-17.9L82.6,213.7z"/>
		<path style="opacity:0.62;fill:#A3794F;" d="M83.8,214l5.6,4.1c0,0,3.9,3.2,8.9,6.7c4.6-3.3,8.5-6.7,8.5-6.7l-4.7-4.4L83.8,214z"
			/>
		<path style="fill:#C69B6F;" d="M101.7,213.8l-18.9-0.1l-9,6c0,0,9,14.5,9.5,14.5c0.5,0,23.1-16,23.1-16L101.7,213.8z"/>
	</g>
	<rect x="60.3" y="200.9" style="fill:#010101;" width="81.2" height="4.5"/>
	<rect x="60.3" y="257.5" style="fill:#010101;" width="81.2" height="4.5"/>
	<path style="opacity:0.36;fill:#010101;" d="M120.1,247.3h-42c-1.9,0-3.5-1.6-3.5-3.5v-19.7c0-1.9,1.6-3.5,3.5-3.5h42
		c1.9,0,3.5,1.6,3.5,3.5v19.7C123.7,245.7,122.1,247.3,120.1,247.3z"/>
	<path style="fill:#FFFFFF;" d="M93.6,223.3l18.8,10.5c0.3,0.2,0.3,0.5,0,0.7L93.6,245c-0.3,0.1-0.6,0-0.6-0.4v-21.1
		C93,223.3,93.3,223.1,93.6,223.3z"/>
</g>
<path style="opacity:0.1;fill:#F5FDFF;" d="M20.4,369.2L131.9,19.6H26c-3.1,0-5.7,2.5-5.7,5.7V369.2z"/>
</svg>
