<?xml version="1.0" encoding="utf-8"?>
<!-- Generator: Adobe Illustrator 18.0.0, SVG Export Plug-In . SVG Version: 6.00 Build 0)  -->
<!DOCTYPE svg PUBLIC "-//W3C//DTD SVG 1.1//EN" "http://www.w3.org/Graphics/SVG/1.1/DTD/svg11.dtd">
<svg version="1.1" id="Layer_1" xmlns="http://www.w3.org/2000/svg" xmlns:xlink="http://www.w3.org/1999/xlink" x="0px" y="0px"
	 viewBox="40.8 502.8 751.2 501.1" style="enable-background:new 40.8 502.8 751.2 501.1;" xml:space="preserve">
<g>
	
		<rect x="142.8" y="559.5" transform="matrix(-0.9252 -0.3796 0.3796 -0.9252 242.5011 1541.5275)" style="fill:#FFA727;" width="260.8" height="374.8"/>
	
		<rect x="131.3" y="609.9" transform="matrix(-0.9252 -0.3796 0.3796 -0.9252 243.4018 1542.3958)" style="fill:#D85319;" width="284.9" height="274.6"/>
</g>
<path style="fill:#232222;" d="M480.6,779.3c-24.8,35.1-9.8,57,15.3,74.7c25.1,17.7,50.7,24.4,75.5-10.6
	c24.8-35.1,47.2-106.4,22.1-124.1C568.5,701.6,505.4,744.3,480.6,779.3z"/>
<polygon style="fill:#4F4646;" points="582.5,721.2 511.5,825.7 591.9,725.9 "/>
<path style="fill:#232222;" d="M648.7,918.1c23.3,16.4,37.8,6.4,49.6-10.1c11.8-16.7,16.2-33.7-6.9-50.1s-70.5-31.2-82.3-14.7
	S625.4,901.7,648.7,918.1z"/>
<polygon style="fill:#4F4646;" points="610.3,850.5 679.4,897.5 613.3,844.2 "/>
<path style="fill:#232222;" d="M656.3,736.3c23.3,16.4,37.8,6.4,49.6-10.1c11.8-16.5,16.2-33.7-6.9-50.1
	c-23.1-16.4-70.5-31.2-82.3-14.7C604.9,678,633,720,656.3,736.3z"/>
<polygon style="fill:#4F4646;" points="617.7,668.9 687,715.9 620.9,662.7 "/>
<polygon style="opacity:0.48;fill:#B53C12;" points="204.7,570.4 194.1,566.1 89.8,820.2 100.4,824.5 81.4,870.7 322.7,969.7 
	223.7,524 "/>
<g>
	<path style="fill:#FFFFFF;" d="M180.7,700.4l-0.7,1.5l-8.8-2.7l0.8-2.2c1.3-3.4,0.5-5.7-2.4-6.9c-2.9-1.2-5.2-0.2-6.6,3.2l-0.3,0.7
		c-1.3,3.4-1,6.9,2.7,14.2c5.2,9.9,6.2,16,3.4,22.9l-1.2,2.9c-3.4,8.3-10.1,11-18.9,7.4c-8.6-3.5-11.6-10.3-8.3-18.5l1.5-3.9
		l8.8,2.7l-1.7,4c-1.5,3.5-0.5,6.1,2.7,7.4c3.4,1.3,5.7,0.2,7.2-3.4l0.8-1.9c1.5-3.5,1-7.2-2.9-14.5c-5.2-9.9-5.9-15.8-3.2-22.6
		l0.5-1.2c3.4-8.3,9.9-11,18.4-7.6C181.2,685.6,184.1,692.3,180.7,700.4z"/>
	<path style="fill:#FFFFFF;" d="M197.4,702.6l-6.7,16.4l12.8,5.2l-3.4,8.1l-12.8-5.2l-7.1,17.2l15.8,6.4l-3.4,8.1l-24.6-10.1
		l23.6-57.7l24.6,10.1l-3.4,8.1L197.4,702.6z"/>
	<path style="fill:#FFFFFF;" d="M228.4,773.2l16.4-40h-0.2l-20.2,28.8l-5.2-2.2l5.7-34.7h-0.2l-16.4,40l-8.3-3.4l23.6-57.7l11.5,4.7
		l-5.9,33.7h0.2l19.4-28.2l11.8,4.9L237,777L228.4,773.2z"/>
	<path style="fill:#FFFFFF;" d="M246.6,780.7l23.6-57.7l8.8,3.5l-23.6,57.7L246.6,780.7z"/>
	<path style="fill:#FFFFFF;" d="M291.5,789.4l-3.4,8.3l-23.3-9.6l23.6-57.7l8.8,3.5L277,783.4L291.5,789.4z"/>
	<path style="fill:#FFFFFF;" d="M320.3,801.4l-3.4,8.3l-23.3-9.6l23.6-57.7l8.8,3.5l-20.2,49.4L320.3,801.4z"/>
	<path style="fill:#FFFFFF;" d="M341.5,819.8l3.5-13.8l-9.6-3.9l-7.2,12.3l-8.8-3.5l33.5-53.6l11.1,4.6l-13.7,61.7L341.5,819.8z
		 M339.9,794.5l7.2,3l6.4-25.8l-0.2-0.2L339.9,794.5z"/>
	<path style="fill:#FFFFFF;" d="M398.7,789.9l-0.7,1.5l-8.8-2.7l0.8-2.2c1.3-3.4,0.5-5.7-2.4-6.9c-2.9-1.2-5.2-0.2-6.6,3.2l-0.3,0.7
		c-1.3,3.4-1,6.9,2.7,14.2c5.2,9.9,6.2,16,3.4,22.9l-1.2,2.9c-3.4,8.3-10.1,11-18.9,7.4c-8.6-3.5-11.6-10.3-8.3-18.5l1.5-3.9
		l8.8,2.7l-1.7,4c-1.5,3.5-0.5,6.1,2.7,7.4c3.4,1.3,5.7,0.2,7.2-3.4l0.8-1.9c1.5-3.5,1-7.2-2.9-14.5c-5.2-9.9-5.9-15.8-3.2-22.6
		l0.5-1.2c3.4-8.3,9.9-11,18.4-7.6C399.4,775.1,402.1,781.7,398.7,789.9z"/>
</g>
</svg>
