<?xml version="1.0" encoding="utf-8"?>
<!-- Generator: Adobe Illustrator 18.0.0, SVG Export Plug-In . SVG Version: 6.00 Build 0)  -->
<!DOCTYPE svg PUBLIC "-//W3C//DTD SVG 1.1//EN" "http://www.w3.org/Graphics/SVG/1.1/DTD/svg11.dtd">
<svg version="1.1" id="Layer_1" xmlns="http://www.w3.org/2000/svg" xmlns:xlink="http://www.w3.org/1999/xlink" x="0px" y="0px"
	 viewBox="0 0 1224 792" style="enable-background:new 0 0 1224 792;" xml:space="preserve">
<path style="fill:#17A2B8;" d="M470.3,38.8h626.2c52.3,0,95,42.8,95,95v527.1c0,52.3-42.8,95-95,95H470.3c-52.3,0-95-42.8-95-95
	V133.8C375.3,81.6,418.1,38.8,470.3,38.8z"/>
<g>
	<g>
		<path d="M556.9,314.8c-15.7-23.2-38.9-38.5-65.9-15.1c-9.3,8.1-19.3,15.7-29.7,22.4c-15.1,9.7-27,4.5-32-12.8
			c-5-17.2-17.9-27-35-22.9c-36.6,8.8-68.2,25.6-84.9,62.1c-2.6,5.7-5.3,11.3-8,17c-1-0.3-2-0.5-3-0.8c-0.4-3.9-1-7.8-1-11.7
			c0-12.8-6.5-20.6-18.6-23c-10.4-2-8.9-7-4.7-13.4c2.4-3.7,5.4-7,7.9-10.6c7.2-10.4,15-20.5,21.1-31.6c6.9-12.5,4-19-9.6-21.6
			c-14.1-2.7-28.6-4-42.9-5.3c-8.2-0.7-11.5-4.3-10.3-12.3c1.6-10.3,2.7-20.7,4.8-30.9c2.3-11.6,0.5-23.7-8.9-29.2
			c-8-4.7-20-5.3-29.6-3.7c-8.1,1.3-15.6,7.8-22.8,12.8c-15.6,11.1-30.6,23.2-46.4,34c-9.5,6.5-14.5,15.1-11.3,25.5
			c3.3,10.7,8.5,21.4,15.2,30.3c10,13.5,11.1,23.9,0,36.6c-4.7,5.4-10.7,9.8-15.3,15.3c-11,13-6.6,34,8.4,42.1c2,1.1,3.4,3.5,5,5.2
			c-3.1,1-8,3.6-8.9,2.7c-4.9-5.7-10.1-11.7-12.9-18.6c-3.4-8.4-3.8-18-7-26.5c-3.2-8.4-10.1-13.3-19.9-12.4
			c-18.9,1.8-31.6,21.7-24.4,39.2c3.8,9.3,2,13.7-7.9,16.7c-11,3.4-22,7.8-32,13.5c-11.4,6.4-16.8,24-10.9,33.5
			c7.1,11.7,17.2,8.6,27.6,4.5c10.2-4.1,14.1-0.9,13.2,10.3c-0.3,4-1.5,7.9-1.5,11.9c-0.6,25.8,16,36.7,39.1,25.3
			c5.2-2.6,7.3-3.1,6.4,3.9c-2.6,20.7-0.9,41.2,7.6,60.1c8.4,18.6,11.2,40.2,27.5,55c0.9,0.8,0.6,4.6-0.5,5.7
			c-10.8,11.3-9.4,21.3-1.9,35.1c18.9,34.3,35.4,70,52.6,105.2c6.1,12.4,14.6,18.8,29.5,17.5c13.5-1.2,27.3,0.1,40.9,0.2
			c28.9,0.1,57.7,0.4,86.6,0.2c19.7-0.1,33.8-7,41.4-27.7c6.9-19,18.5-36.4,27.7-54.6c10.8-21.6,28.9-42,12.2-68.7
			c-0.6-0.9,2.7-6.2,3.9-6.1c10.1,0.9,12.7-5.7,15.5-13.4c2.4-6.7,5.9-12.9,10.2-22.3c0,0.1,0,0.2,0,0.3c4.1-14.1,8-29.6,10.2-38.4
			c1.3-16.2,2.6-32.5,3.8-48.8c0.3-3.8-0.1-9.6-2.5-11.4c-6.4-5.1-14.2-12.1-21.3-11.9c-13.2,0.3-15.9,0.5-18.3-12.7
			c-0.4-2-0.1-5.4,1.1-6.3c1.5-1.1,4.6-0.7,6.7,0c2.6,0.9,5.1,2.5,7.2,4.3c11.5,10,25.2,14.2,39.9,13c21.8-1.8,42.1-16.7,31.3-37.8
			c-9.8-19.2-2.3-33.1,10.3-46.3c10.3-10.7,20.7-21.3,31.8-31.1C561.1,329.5,561.7,321.9,556.9,314.8z M293.8,381.6
			c0.6-0.5,7.8,4.1,7.6,5.8c-0.7,5.9-2.7,11.9-5.3,17.4c-2.4,5.1-6,9.6-9.1,14.3c5.9,1.7,11.8,3.5,17.7,5.1c4.6,1.2,9.6,1.3,13.9,3
			c7.3,3,11.4,9.8,7.2,16.2c-2.3,3.5-10.6,3.4-16.3,4.3c-3.2,0.5-8.2-1.9-9.4-0.4c-1.8,2.1-1.4,6.5-1.3,10
			c0.1,5.2,2.2,14.5,0.7,15.1c-9.7,3.6-17.9,14-30.3,7.4c-10.9-5.9-22.7-10.1-33.2-16.5c-4.1-2.5-6.3-8.8-8.3-13.8
			c-2.8-6.8-4.5-14-6.6-20.7c2.4-7,3.6-13.5,6.6-19c5.5-10,14.8-12.1,24.4-6.6c16.5,9.7,21.5,8,30.6-8.9
			C285.2,389.3,289.6,385.2,293.8,381.6z M134.4,333.6c4.3-6.7,9.9-12.6,14.6-19c12-16.3,12.1-26.9,1-44c-2.6-4-4.9-8.3-7-12.6
			c-8.1-17.2-4.7-28.2,10.6-39.3c12-8.7,23.2-18.3,34.9-27.3c5.4-4.1,10.8-9.1,17-10.7c7.6-1.9,18.3-3.7,23.3,0.1
			c5.1,3.9,6.8,14.7,6.7,22.4c-0.1,9.8-4,19.6-5.1,29.5c-2,16.6,2.8,21.8,19.5,23c11.6,0.8,23.3,1,34.7,2.7
			c12.2,1.8,14.7,6.8,8.7,17.2c-4.1,7.2-9.9,13.4-14.6,20.3c-6.7,9.9-14.1,19.5-19.4,30.1c-4.8,9.6-0.4,13.8,10.3,11.7
			c13.9-2.7,19.8,4.1,18.8,28.2c-4.2,7.6-10.7,20-18.1,32c-0.8,1.4-7,1.4-9.1-0.2c-13.9-10.7-26.8-11.7-39.3,1.9
			c-1,1.1-4.5,2-4.7,1.5c-7.7-11.4-27.5-11.9-25.9-32.3c0.9-11.6-10.2-15.9-24.3-14.3c-8.9,1-18.6,1.7-26.8-0.9
			C129.8,350.3,128.3,343.1,134.4,333.6z M90.2,462.1c-4.7,3.2-13.3,5.8-17.1,3.6c-4.7-2.7-7.8-10.5-8.9-16.6
			c-1.3-7.3,1-15.2,0.3-22.7c-1.1-11.9-6.6-15.3-18.1-12.5c-1.9,0.5-3.9,1.7-5.8,1.6c-5.2-0.3-10.3-1-15.5-1.6
			c2.1-6,2.5-14.5,6.7-17.6c7.9-5.7,17.8-9,27.3-11.8c19.6-5.8,21.8-9.8,16.4-29.1c-1.6-5.7-1-14.1,2.3-18.5
			c9.9-13.5,21.4-11.3,26.5,4.4c2.1,6.4,2.1,13.5,3.9,20c1.6,5.7,3.7,11.6,6.8,16.6c8.4,13.4,17.4,14.4,29.8,4.3
			c6.5-5.3,12.6-11.3,19.7-15.5c11.2-6.7,17.8-3.2,18.5,9.5c0.7,11.6,2.3,21.4,17,23.3c2.8,0.4,5.9,6.2,7.1,10.1
			c4.1,13.2,7.8,26.5,11.1,40c1.3,5.1,2.1,11.2-7.1,8.8c-10.8-2.8-22.4,3.9-25.8,14.7c-1.6,5-2.3,10.4-4.8,14.8
			c-1.5,2.7-5.7,3.9-8.7,5.7c-1.3-3.5-3.6-6.9-3.6-10.4c0-3.7,2.3-7.4,4-12.2c-3.4,1.4-5.3,2.1-7.2,2.9c-1.3-6.5-1.3-13.7-4.1-19.4
			c-4.9-10.1,4.8-9.9,8.4-14.1c1.3-1.5,2.6-3.1,4.3-4.2c4.9-3.5,10-6.9,15-10.3c3.6,5.5,7.3,10.9,10.8,16.4c1,1.5,1.5,3.3,2.5,5.7
			c4.4-10,0.9-27.2-6.5-31c-10.3-5.3-18-0.2-25.4,7.4c-6.6,6.8-14.1,13-22,18.1c-7.1,4.6-9.8,7.8-1.8,14.2c2.5,2.1,2.9,6.8,4.3,10.3
			c-4-1-8.9-0.8-11.8-3.2C115.7,444.5,116,444.6,90.2,462.1z M136.6,552.6c-10.4-28.4-17.2-57.5-13.6-87.4
			c9.4,5.7,18.6,10.6,27.1,16.7c3.6,2.6,5.1,8.1,8.5,11.2c5.4,4.8,12.1,12.4,17.4,11.8c5.2-0.5,11.1-9.3,13.7-15.6
			c7.4-18.5,7-16.5,27.6-18.2c20.8-1.8,34.3,9.8,49.7,19c7.6,4.5,1.8,8.9-1.1,11.3c-18.5,15.8-36.5,32.5-56.7,46
			c-13.3,8.9-29.5,14.2-45,19C149.7,570.9,141.8,566.8,136.6,552.6z M404.1,662c-12,19.4-22.3,39.9-33.3,59.9
			c-6.5,11.8-17,16.1-30,16.3c-30.5,0.5-61,1.4-93.3,2.2c-1.8-0.1-5.5-0.7-9-0.2c-32.3,4.8-47.5-15.4-59.4-40.4
			c-9.5-19.8-18.5-39.9-28.1-59.6c-5.4-11.2-3.7-20.6,1.7-31.8c11.4-23.5,32.6-33.8,53.9-44.8c31.5-16.2,57.7-39.1,80.7-65.7
			c6.1-7,9.5-7.8,14.4,1.2c21.5,38.7,53.3,66.6,92.6,86.4c7.1,3.6,12.9,8,12.6,17.2c-0.1,2.3,0.6,5,1.8,6.9
			C420.2,628.2,414.7,644.8,404.1,662z M434.1,469.8c16.3-3.9,23.5,1.3,21.3,18.4c-1.7,13.1-3.3,26.3-6.5,39.1
			c-4,15.9-9.1,31.5-14.6,46.9c-3.6,9.9-10.1,12.6-20.9,7.7c-31.5-14.2-57.8-34.5-77.3-62.9c-5.4-7.9-7.4-18.1-11-27.2
			c8.6-0.7,17.2-1.4,23.1-1.9c6.8,0.8,10.8,1.1,14.7,1.8c8.5,1.4,14.3-1.6,19.5-8.6c2.9-3.8,8.4-6.8,13.2-7.7
			C408.3,472.9,421.5,472.8,434.1,469.8z M544.1,335.6c-8.9,8.6-18.3,16.8-27.7,25c-18.7,16.5-23.5,34-14.2,57.3
			c4.2,10.6,1.3,16.4-8.7,20.8c-14.4,6.4-27.9,6.5-40.7-3.5c-11.2-8.7-23.3-14.6-37.8-9.7c-2.8,0.9-6.6,2.8-7.1,5
			c-0.5,2.1,2.5,5.1,4.1,7.6c2,2.9,4.8,5.5,6.2,8.6c5.1,11.4-1.1,19.9-15.6,18.9c-14-8.4-22.1,1.2-29.4,13.4
			c-1.3,2.1-4.4,4.2-6.7,4.2c-16.8,0-33.8,0.4-45.8-15c-4-5.1-3.5-7.9,2.2-9.7c12.8-4,14-14.7,13.7-25.1
			c-0.3-11.3-9.5-14.6-19.1-16.5c-14.4-2.7-13.6-2.5-8.4-16.6c2.4-6.5,1.3-14.4,1.4-21.7c0.1-2.7-1.8-5.7-1-8
			c8-24.6,19.9-46.4,44-59.1c10.6-5.6,20.9-12.2,32.1-16.1c18.1-6.3,29.9,0.5,36.2,18.6c6.2,17.9,21.5,25.1,38,16.3
			c12.2-6.6,23.6-14.9,34.5-23.6c17.4-13.8,36.5-12.4,50.9,4.6C552.6,320.4,552.6,327.4,544.1,335.6z"/>
	</g>
	<path style="fill:#B9D76C;" d="M293.8,381.6c0.6-0.5,7.8,4.1,7.6,5.8c-0.7,5.9-2.7,11.9-5.3,17.4c-2.4,5.1-6,9.6-9.1,14.3
		c5.9,1.7,11.8,3.5,17.7,5.1c4.6,1.2,9.6,1.3,13.9,3c7.3,3,11.4,9.8,7.2,16.2c-2.3,3.5-10.6,3.4-16.3,4.3c-3.2,0.5-8.2-1.9-9.4-0.4
		c-1.8,2.1-1.4,6.5-1.3,10c0.1,5.2,2.2,14.5,0.7,15.1c-9.7,3.6-17.9,14-30.3,7.4c-10.9-5.9-22.7-10.1-33.2-16.5
		c-4.1-2.5-6.3-8.8-8.3-13.8c-2.8-6.8-4.5-14-6.6-20.7c2.4-7,3.6-13.5,6.6-19c5.5-10,14.8-12.1,24.4-6.6c16.5,9.7,21.5,8,30.6-8.9
		C285.2,389.3,289.6,385.2,293.8,381.6z"/>
	<path style="fill:#B9D76C;" d="M134.4,333.6c4.3-6.7,9.9-12.6,14.6-19c12-16.3,12.1-26.9,1-44c-2.6-4-4.9-8.3-7-12.6
		c-8.1-17.2-4.7-28.2,10.6-39.3c12-8.7,23.2-18.3,34.9-27.3c5.4-4.1,10.8-9.1,17-10.7c7.6-1.9,18.3-3.7,23.3,0.1
		c5.1,3.9,6.8,14.7,6.7,22.4c-0.1,9.8-4,19.6-5.1,29.5c-2,16.6,2.8,21.8,19.5,23c11.6,0.8,23.3,1,34.7,2.7
		c12.2,1.8,14.7,6.8,8.7,17.2c-4.1,7.2-9.9,13.4-14.6,20.3c-6.7,9.9-14.1,19.5-19.4,30.1c-4.8,9.6-0.4,13.8,10.3,11.7
		c13.9-2.7,19.8,4.1,18.8,28.2c-4.2,7.6-10.7,20-18.1,32c-0.8,1.4-7,1.4-9.1-0.2c-13.9-10.7-26.8-11.7-39.3,1.9
		c-1,1.1-4.5,2-4.7,1.5c-7.7-11.4-27.5-11.9-25.9-32.3c0.9-11.6-10.2-15.9-24.3-14.3c-8.9,1-18.6,1.7-26.8-0.9
		C129.8,350.3,128.3,343.1,134.4,333.6z"/>
	<path style="fill:#B9D76C;" d="M90.2,462.1c-4.7,3.2-13.3,5.8-17.1,3.6c-4.7-2.7-7.8-10.5-8.9-16.6c-1.3-7.3,1-15.2,0.3-22.7
		c-1.1-11.9-6.6-15.3-18.1-12.5c-1.9,0.5-3.9,1.7-5.8,1.6c-5.2-0.3-10.3-1-15.5-1.6c2.1-6,2.5-14.5,6.7-17.6
		c7.9-5.7,17.8-9,27.3-11.8c19.6-5.8,21.8-9.8,16.4-29.1c-1.6-5.7-1-14.1,2.3-18.5c9.9-13.5,21.4-11.3,26.5,4.4
		c2.1,6.4,2.1,13.5,3.9,20c1.6,5.7,3.7,11.6,6.8,16.6c8.4,13.4,17.4,14.4,29.8,4.3c6.5-5.3,12.6-11.3,19.7-15.5
		c11.2-6.7,17.8-3.2,18.5,9.5c0.7,11.6,2.3,21.4,17,23.3c2.8,0.4,5.9,6.2,7.1,10.1c4.1,13.2,7.8,26.5,11.1,40
		c1.3,5.1,2.1,11.2-7.1,8.8c-10.8-2.8-22.4,3.9-25.8,14.7c-1.6,5-2.3,10.4-4.8,14.8c-1.5,2.7-5.7,3.9-8.7,5.7
		c-1.3-3.5-3.6-6.9-3.6-10.4c0-3.7,2.3-7.4,4-12.2c-3.4,1.4-5.3,2.1-7.2,2.9c-1.3-6.5-1.3-13.7-4.1-19.4c-4.9-10.1,4.8-9.9,8.4-14.1
		c1.3-1.5,2.6-3.1,4.3-4.2c4.9-3.5,10-6.9,15-10.3c3.6,5.5,7.3,10.9,10.8,16.4c1,1.5,1.5,3.3,2.5,5.7c4.4-10,0.9-27.2-6.5-31
		c-10.3-5.3-18-0.2-25.4,7.4c-6.6,6.8-14.1,13-22,18.1c-7.1,4.6-9.8,7.8-1.8,14.2c2.5,2.1,2.9,6.8,4.3,10.3c-4-1-8.9-0.8-11.8-3.2
		C115.7,444.5,116,444.6,90.2,462.1z"/>
	<path style="fill:#B9D76C;" d="M544.1,335.6c-8.9,8.6-18.3,16.8-27.7,25c-18.7,16.5-23.5,34-14.2,57.3c4.2,10.6,1.3,16.4-8.7,20.8
		c-14.4,6.4-27.9,6.5-40.7-3.5c-11.2-8.7-23.3-14.6-37.8-9.7c-2.8,0.9-6.6,2.8-7.1,5c-0.5,2.1,2.5,5.1,4.1,7.6
		c2,2.9,4.8,5.5,6.2,8.6c5.1,11.4-1.1,19.9-15.6,18.9c-14-8.4-22.1,1.2-29.4,13.4c-1.3,2.1-4.4,4.2-6.7,4.2
		c-16.8,0-33.8,0.4-45.8-15c-4-5.1-3.5-7.9,2.2-9.7c12.8-4,14-14.7,13.7-25.1c-0.3-11.3-9.5-14.6-19.1-16.5
		c-14.4-2.7-13.6-2.5-8.4-16.6c2.4-6.5,1.3-14.4,1.4-21.7c0.1-2.7-1.8-5.7-1-8c8-24.6,19.9-46.4,44-59.1
		c10.6-5.6,20.9-12.2,32.1-16.1c18.1-6.3,29.9,0.5,36.2,18.6c6.2,17.9,21.5,25.1,38,16.3c12.2-6.6,23.6-14.9,34.5-23.6
		c17.4-13.8,36.5-12.4,50.9,4.6C552.6,320.4,552.6,327.4,544.1,335.6z"/>
	<path style="fill:#C3996B;" d="M136.6,552.6c-10.4-28.4-17.2-57.5-13.6-87.4c9.4,5.7,18.6,10.6,27.1,16.7c3.6,2.6,5.1,8.1,8.5,11.2
		c5.4,4.8,12.1,12.4,17.4,11.8c5.2-0.5,11.1-9.3,13.7-15.6c7.4-18.5,7-16.5,27.6-18.2c20.8-1.8,34.3,9.8,49.7,19
		c7.6,4.5,1.8,8.9-1.1,11.3c-18.5,15.8-36.5,32.5-56.7,46c-13.3,8.9-29.5,14.2-45,19C149.7,570.9,141.8,566.8,136.6,552.6z"/>
	<path style="fill:#C3996B;" d="M404.1,662c-12,19.4-22.3,39.9-33.3,59.9c-6.5,11.8-17,16.1-30,16.3c-30.5,0.5-61,1.4-93.3,2.2
		c-1.8-0.1-5.5-0.7-9-0.2c-32.3,4.8-47.5-15.4-59.4-40.4c-9.5-19.8-18.5-39.9-28.1-59.6c-5.4-11.2-3.7-20.6,1.7-31.8
		c11.4-23.5,32.6-33.8,53.9-44.8c31.5-16.2,57.7-39.1,80.7-65.7c6.1-7,9.5-7.8,14.4,1.2c21.5,38.7,53.3,66.6,92.6,86.4
		c7.1,3.6,12.9,8,12.6,17.2c-0.1,2.3,0.6,5,1.8,6.9C420.2,628.2,414.7,644.8,404.1,662z"/>
	<path style="fill:#C3996B;" d="M434.1,469.8c16.3-3.9,23.5,1.3,21.3,18.4c-1.7,13.1-3.3,26.3-6.5,39.1c-4,15.9-9.1,31.5-14.6,46.9
		c-3.6,9.9-10.1,12.6-20.9,7.7c-31.5-14.2-57.8-34.5-77.3-62.9c-5.4-7.9-7.4-18.1-11-27.2c8.6-0.7,17.2-1.4,23.1-1.9
		c6.8,0.8,10.8,1.1,14.7,1.8c8.5,1.4,14.3-1.6,19.5-8.6c2.9-3.8,8.4-6.8,13.2-7.7C408.3,472.9,421.5,472.8,434.1,469.8z"/>
	<path d="M245.3,579.4c-2.6-0.1-5.1,0-7.8,0.3c-2.7,0.2-5.4,0.6-8.8,1.3c1.8,3,4.6,4.8,7.4,6.1c1,0.5,2.1,0.8,3.2,1.1
		c-1.7,0.6-3.4,1.4-4.8,2.8c-5.1,4.8-5.4,12.8-0.6,17.9c4.8,5.1,12.8,5.4,17.9,0.6c5.1-4.8,5.4-12.8,0.6-17.9
		c-1.1-1.2-2.4-2.1-3.8-2.7c1.8-0.2,3.7-0.6,5.4-1.3c2.9-1.1,5.6-2.8,7.8-5.4c-3.2-1.3-6-1.7-8.8-2.1
		C250.5,579.7,247.9,579.4,245.3,579.4z"/>
	<path d="M355.5,582.3c-2.7,0.1-5.3,0.2-7.8,0.6c-2.5,0.3-5,0.8-7.7,1.4c-2.6,0.6-5.3,1.4-8.5,2.6c2.2,2.7,5.2,4.1,8.2,5
		c0.5,0.1,1,0.2,1.5,0.3c-1.3,0.6-2.4,1.3-3.5,2.3c-5.1,4.8-5.4,12.8-0.6,17.9c4.8,5.1,12.8,5.4,17.9,0.6c5.1-4.8,5.4-12.8,0.6-17.9
		c-1.3-1.3-2.8-2.3-4.4-3c2.2-0.5,4.3-1.3,6.3-2.4c2.7-1.5,5.1-3.5,6.9-6.4C361.1,582.4,358.3,582.3,355.5,582.3z"/>
	<path d="M292.1,633.3c2.6,1,5.2,1.3,7.7,1.1c2.5-0.2,5-1,7.4-2.4c2.4-1.5,4.8-3.5,7-7.1l-0.1-1c-2.5,0.1-5.1,0.2-7.6,0.3l-7.6,0.6
		c-2.5,0.3-5,0.5-7.6,0.8c-2.5,0.3-5,0.7-7.5,1.1l0.1,1C286.8,630.7,289.4,632.3,292.1,633.3z"/>
</g>
<g>
	<path d="M502,160l0.4-30.7c0-13.5-0.7-23.7-2.2-30.7c0.9-1.3,2-1.9,3.3-1.9c2.1,0,4.1,0.5,5.8,1.4c1.7,1,3.2,2.2,4.3,3.8
		c2.3,3.3,3.4,7,3.4,11.2s-0.9,8-2.7,11.4c-1.8,3.4-4.5,6.1-8,8l0.7,26.8c0,2.4-1,3.6-2.9,3.6c-0.7,0-1.2-0.3-1.6-0.9
		S502,160.8,502,160z M506,128.4c4.4-4.1,6.6-8.9,6.6-14.6v0c0-3.2-0.4-5.5-1.2-6.8c-0.4-0.6-0.7-1.1-0.9-1.4
		c-0.2-0.3-0.7-0.8-1.4-1.4c-0.9-0.7-2.2-1.7-4-3c0,3,0.2,7.6,0.5,13.6S506,125.4,506,128.4z"/>
	<path d="M522.4,159.9l0.3-50.4V98.9c0-0.7,0.1-1.1,0.4-1.4c0.3-0.3,1-0.4,2.2-0.4c1.2,0,2.4,0.3,3.6,0.9c1.2,0.6,2.2,1.3,3.1,2.3
		c0.8,1,1.5,2.1,2.1,3.4c1.1,2.4,1.7,5,1.7,7.8c0,2.8-0.7,6-2.1,9.6c-0.2,0.4-0.5,1.2-1,2.5s-0.8,2-0.9,2.2c0,4.3,1.1,9.8,3.2,16.6
		c0.7,2.3,1.8,5.4,3.1,9.4s2.2,6.5,2.5,7.6v0.2c0,1.9-0.2,3.1-0.7,3.4c-0.4,0.3-0.9,0.5-1.4,0.5c-1.1,0-2.1-0.8-3.1-2.3v-0.3
		c-0.3-5.2-2.1-13.1-5.4-23.6c-1.5-4.8-2.6-8.4-3.1-10.7v33.9c0,0.9-0.2,1.5-0.5,2c-0.3,0.5-0.9,0.7-1.7,0.7c-0.8,0-1.4-0.2-1.8-0.7
		c-0.4-0.5-0.6-1-0.6-1.7V159.9z M527.2,101l-0.5,17.6c0,1.8,0,3.1,0.1,3.9c1-0.9,1.9-2,2.9-3.3l1.3-7.4c0.1-0.4,0.1-0.8,0.1-1.3
		c0-1.4-0.3-3-0.8-5C529.5,102.7,528.5,101.3,527.2,101z"/>
	<path d="M564.3,136.5l-0.8,10.9v0.4c-0.4,1.6-0.5,3.3-0.5,5.2s-0.3,3.6-1,5.4c-0.6,1.7-1.6,3.2-2.9,4.6c-1.3,1.3-2.8,2-4.3,2
		c-1.6,0-3-0.5-4.3-1.6c-1.3-1.1-2.4-2.4-3.2-4.1c-0.8-1.7-1.6-3.7-2.2-6c-0.6-2.3-1.1-4.6-1.5-6.8c-0.4-2.2-0.6-4.5-0.9-6.9
		c-0.3-3.7-0.5-6.6-0.5-8.7c0-2.1,0-3.8,0-5.3c0-1.5-0.1-2.8-0.1-4c0-0.6,0-1.2,0-2s0-1.5,0-2.3c0-1.7,0.1-3.1,0.1-4.5
		c0.1-1.3,0.2-2.7,0.4-4.3c0.2-1.5,0.4-2.9,0.7-4c0.3-1.2,0.7-2.3,1.1-3.4c0.5-1.1,1.1-2.1,1.7-2.8c1.4-1.6,3-2.4,4.8-2.4
		c1.8,0,3.4,0.3,4.7,1c1.3,0.7,2.4,1.7,3.3,3.2c0.9,1.5,1.7,2.9,2.3,4.2c0.7,1.4,1.2,3.3,1.6,5.7c0.4,2.5,0.7,4.4,0.9,5.9
		c0.2,1.5,0.4,3.7,0.5,6.6c0.1,3.8,0.2,6.8,0.2,9V136.5z M556.7,105c-0.6-1.5-1.3-2.6-2.1-3.4c-0.9-0.8-1.7-1.2-2.5-1.2
		s-1.5,0.3-2.1,0.9s-1,1.4-1.4,2.5c-0.4,1.1-0.7,2.2-1,3.5c-0.3,1.2-0.5,2.7-0.7,4.3c-0.2,1.6-0.3,3.1-0.4,4.4
		c-0.1,1.3-0.2,2.7-0.2,4.3c-0.1,2.6-0.1,4.6-0.1,6.1v0.4c0,3.8,0.3,8,0.9,12.4c0.6,4.4,1.2,8.1,1.8,10.9c0.6,2.8,1.5,5.2,2.5,7.2
		c1.1,2,2.3,3,3.6,3c1.1,0,2.1-1.1,2.9-3.2c0.8-2.2,1.3-4.9,1.7-8.1c0.6-5.7,0.8-9.7,0.9-12c0-2.3,0-4,0-5.1c0-1.1-0.1-2.6-0.1-4.6
		c-0.1-2-0.2-3.9-0.4-5.7c-0.2-1.8-0.4-3.7-0.7-5.9c-0.3-2.2-0.6-4.1-1-5.8C557.8,108.1,557.3,106.5,556.7,105z"/>
	<path d="M570,117.4l0.6-15.8v-0.5c0-2.9,0.6-4.3,1.9-4.3c1.1,0,2.7,2.7,4.6,8c3.5,9.7,7.8,25.6,12.7,47.8l0.1,0.4l0.3-30V97.6
		c0.3-1.4,1.3-2.1,2.8-2.1c1.5,0,2.3,1.1,2.3,3.4v0.5c-0.3,0.7-0.5,1.5-0.5,2.5l-0.5,31.8v26.3c0,0.9-0.2,1.7-0.7,2.6
		c-0.5,0.8-1.1,1.3-1.8,1.3c-1.2,0-3.6-5.9-7.1-17.7c-3.5-11.8-7-24.5-10.4-38.1v28.2c0,2.7,0.2,6.8,0.6,12.3
		c0.4,5.4,0.6,9.5,0.6,12.3c0,0.5-0.3,1-1,1.3c-0.6,0.4-1.5,0.5-2.5,0.5c-1,0-1.5-0.4-1.5-1.3l0.4-6.2c0-3-0.2-7.8-0.5-14.4
		c-0.4-6.7-0.5-10.7-0.5-12.2V117.4z"/>
	<path d="M611.6,112.5l-0.2,11.1l0.8,19.8l0.7,15.5c0,2.8-0.8,4.2-2.5,4.2c-1,0-1.7-0.4-2.1-1.3c-0.4-0.9-0.7-1.9-0.7-3l0.7-13.7
		c0-3-0.2-7.4-0.6-13.4c-0.4-6-0.6-10.4-0.6-13.4l0.1-7.5c0-4.1-0.3-6.8-0.8-8l-4.7,0.5c-0.7,0-1.4-0.2-2-0.7
		c-0.6-0.4-0.9-1-0.9-1.7c0-0.7,0.7-1.3,2.1-1.7c1.4-0.5,3.1-0.9,5-1.1c3.4-0.4,6.3-0.6,8.7-0.6c0.7,0,1.3,0.2,1.9,0.7
		c0.6,0.5,0.9,1,0.9,1.7c0,0.7-0.3,1.3-0.8,1.7c-0.5,0.4-1.1,0.6-1.8,0.6l-3.1-0.2c-0.4,0-0.7,0-0.9,0
		C611.4,105.3,611.6,108.8,611.6,112.5z"/>
	<path d="M643.2,136.5l-0.8,10.9v0.4c-0.4,1.6-0.5,3.3-0.5,5.2s-0.3,3.6-1,5.4c-0.6,1.7-1.6,3.2-2.9,4.6c-1.3,1.3-2.8,2-4.3,2
		c-1.6,0-3-0.5-4.3-1.6c-1.3-1.1-2.4-2.4-3.2-4.1c-0.8-1.7-1.6-3.7-2.2-6c-0.6-2.3-1.1-4.6-1.5-6.8c-0.4-2.2-0.6-4.5-0.9-6.9
		c-0.3-3.7-0.5-6.6-0.5-8.7c0-2.1,0-3.8,0-5.3c0-1.5-0.1-2.8-0.1-4c0-0.6,0-1.2,0-2s0-1.5,0-2.3c0-1.7,0.1-3.1,0.1-4.5
		c0.1-1.3,0.2-2.7,0.4-4.3c0.2-1.5,0.4-2.9,0.7-4c0.3-1.2,0.7-2.3,1.1-3.4c0.5-1.1,1.1-2.1,1.7-2.8c1.4-1.6,3-2.4,4.8-2.4
		c1.8,0,3.4,0.3,4.7,1c1.3,0.7,2.4,1.7,3.3,3.2c0.9,1.5,1.7,2.9,2.3,4.2c0.7,1.4,1.2,3.3,1.6,5.7c0.4,2.5,0.7,4.4,0.9,5.9
		c0.2,1.5,0.4,3.7,0.5,6.6c0.1,3.8,0.2,6.8,0.2,9V136.5z M635.6,105c-0.6-1.5-1.3-2.6-2.1-3.4c-0.9-0.8-1.7-1.2-2.5-1.2
		s-1.5,0.3-2.1,0.9s-1,1.4-1.4,2.5c-0.4,1.1-0.7,2.2-1,3.5c-0.3,1.2-0.5,2.7-0.7,4.3c-0.2,1.6-0.3,3.1-0.4,4.4
		c-0.1,1.3-0.2,2.7-0.2,4.3c-0.1,2.6-0.1,4.6-0.1,6.1v0.4c0,3.8,0.3,8,0.9,12.4c0.6,4.4,1.2,8.1,1.8,10.9c0.6,2.8,1.5,5.2,2.5,7.2
		c1.1,2,2.3,3,3.6,3c1.1,0,2.1-1.1,2.9-3.2c0.8-2.2,1.3-4.9,1.7-8.1c0.6-5.7,0.8-9.7,0.9-12c0-2.3,0-4,0-5.1c0-1.1-0.1-2.6-0.1-4.6
		c-0.1-2-0.2-3.9-0.4-5.7c-0.2-1.8-0.4-3.7-0.7-5.9c-0.3-2.2-0.6-4.1-1-5.8C636.7,108.1,636.2,106.5,635.6,105z"/>
	<path d="M659.5,160l0.4-30.7c0-13.5-0.7-23.7-2.2-30.7c0.9-1.3,2-1.9,3.3-1.9c2.1,0,4.1,0.5,5.8,1.4c1.7,1,3.2,2.2,4.3,3.8
		c2.3,3.3,3.4,7,3.4,11.2s-0.9,8-2.7,11.4c-1.8,3.4-4.5,6.1-8,8l0.7,26.8c0,2.4-1,3.6-2.9,3.6c-0.7,0-1.2-0.3-1.6-0.9
		S659.5,160.8,659.5,160z M663.5,128.4c4.4-4.1,6.6-8.9,6.6-14.6v0c0-3.2-0.4-5.5-1.2-6.8c-0.4-0.6-0.7-1.1-0.9-1.4
		c-0.2-0.3-0.7-0.8-1.4-1.4c-0.9-0.7-2.2-1.7-4-3c0,3,0.2,7.6,0.5,13.6S663.5,125.4,663.5,128.4z"/>
	<path d="M701.1,136.5l-0.8,10.9v0.4c-0.4,1.6-0.5,3.3-0.5,5.2s-0.3,3.6-1,5.4c-0.6,1.7-1.6,3.2-2.9,4.6c-1.3,1.3-2.8,2-4.3,2
		c-1.6,0-3-0.5-4.3-1.6c-1.3-1.1-2.4-2.4-3.2-4.1c-0.8-1.7-1.6-3.7-2.2-6c-0.6-2.3-1.1-4.6-1.5-6.8c-0.4-2.2-0.6-4.5-0.9-6.9
		c-0.3-3.7-0.5-6.6-0.5-8.7c0-2.1,0-3.8,0-5.3c0-1.5-0.1-2.8-0.1-4c0-0.6,0-1.2,0-2s0-1.5,0-2.3c0-1.7,0.1-3.1,0.1-4.5
		c0.1-1.3,0.2-2.7,0.4-4.3c0.2-1.5,0.4-2.9,0.7-4c0.3-1.2,0.7-2.3,1.1-3.4c0.5-1.1,1.1-2.1,1.7-2.8c1.4-1.6,3-2.4,4.8-2.4
		c1.8,0,3.4,0.3,4.7,1c1.3,0.7,2.4,1.7,3.3,3.2c0.9,1.5,1.7,2.9,2.3,4.2c0.7,1.4,1.2,3.3,1.6,5.7c0.4,2.5,0.7,4.4,0.9,5.9
		c0.2,1.5,0.4,3.7,0.5,6.6c0.1,3.8,0.2,6.8,0.2,9V136.5z M693.4,105c-0.6-1.5-1.3-2.6-2.1-3.4c-0.9-0.8-1.7-1.2-2.5-1.2
		s-1.5,0.3-2.1,0.9s-1,1.4-1.4,2.5c-0.4,1.1-0.7,2.2-1,3.5c-0.3,1.2-0.5,2.7-0.7,4.3c-0.2,1.6-0.3,3.1-0.4,4.4
		c-0.1,1.3-0.2,2.7-0.2,4.3c-0.1,2.6-0.1,4.6-0.1,6.1v0.4c0,3.8,0.3,8,0.9,12.4c0.6,4.4,1.2,8.1,1.8,10.9c0.6,2.8,1.5,5.2,2.5,7.2
		c1.1,2,2.3,3,3.6,3c1.1,0,2.1-1.1,2.9-3.2c0.8-2.2,1.3-4.9,1.7-8.1c0.6-5.7,0.8-9.7,0.9-12c0-2.3,0-4,0-5.1c0-1.1-0.1-2.6-0.1-4.6
		c-0.1-2-0.2-3.9-0.4-5.7c-0.2-1.8-0.4-3.7-0.7-5.9c-0.3-2.2-0.6-4.1-1-5.8C694.5,108.1,694,106.5,693.4,105z"/>
	<path d="M728.6,130.8l0.2,1.8c0,4.1-1,8.8-3.2,14.4c-2.5,6.3-5.4,10.8-8.7,13.4c-1.9,1.5-3.9,2.3-5.9,2.3c-1.1,0-2-0.2-2.9-0.7
		c-0.9-0.5-1.3-1.2-1.3-2.2c1.3-1.3,1.9-4.7,1.9-10.1c0-3.2-0.3-7.9-0.8-14.2c-0.5-6.3-0.8-11-0.8-14.2l0.3-9.4
		c0-1.5-0.3-3.5-0.9-6.1s-0.9-4.4-0.9-5.4c0-2,2.2-3,6.6-3h1.3c5.9,0,10.1,3.3,12.7,9.8c1.8,4.6,2.8,10.9,2.8,18.9v4
		C728.7,130.3,728.6,130.5,728.6,130.8z M712.8,149.4v8.2c2.2-1.4,4-3.4,5.6-5.9c1.6-2.5,2.8-5.2,3.7-8.2c1.6-5.7,2.4-11.4,2.4-17
		c0-6.5-0.8-11.6-2.4-15.4c-1.7-3.9-3.7-6.4-6.1-7.6c-1.5-0.8-3.2-1.2-5.1-1.1v0.1c0,5.2,0.3,13,1,23.4
		C712.4,136.3,712.8,144.2,712.8,149.4z"/>
	<path d="M734.6,159.9l0.3-50.4V98.9c0-0.7,0.1-1.1,0.4-1.4c0.3-0.3,1-0.4,2.2-0.4c1.2,0,2.4,0.3,3.6,0.9c1.2,0.6,2.2,1.3,3.1,2.3
		c0.8,1,1.5,2.1,2.1,3.4c1.1,2.4,1.7,5,1.7,7.8c0,2.8-0.7,6-2.1,9.6c-0.2,0.4-0.5,1.2-1,2.5s-0.8,2-0.9,2.2c0,4.3,1.1,9.8,3.2,16.6
		c0.7,2.3,1.8,5.4,3.1,9.4s2.2,6.5,2.5,7.6v0.2c0,1.9-0.2,3.1-0.7,3.4c-0.4,0.3-0.9,0.5-1.4,0.5c-1.1,0-2.1-0.8-3.1-2.3v-0.3
		c-0.3-5.2-2.1-13.1-5.4-23.6c-1.5-4.8-2.6-8.4-3.1-10.7v33.9c0,0.9-0.2,1.5-0.5,2c-0.3,0.5-0.9,0.7-1.7,0.7c-0.8,0-1.4-0.2-1.8-0.7
		c-0.4-0.5-0.6-1-0.6-1.7V159.9z M739.4,101l-0.5,17.6c0,1.8,0,3.1,0.1,3.9c1-0.9,1.9-2,2.9-3.3l1.3-7.4c0.1-0.4,0.1-0.8,0.1-1.3
		c0-1.4-0.3-3-0.8-5C741.7,102.7,740.7,101.3,739.4,101z"/>
	<path d="M776.5,162.4c-1.8,0-2.6-0.7-2.6-2.2V149c-0.8-0.6-2.3-1-4.4-1.4c-2.1-0.4-4-0.6-5.6-0.8c-0.6,1-1.1,2.5-1.4,4.4
		c-0.4,1.9-0.8,3.8-1.2,5.8c-0.4,1.9-0.9,3.5-1.6,4.6c-2.2,0-3.5-0.6-3.8-1.7c0.8-1.1,2.1-6.8,3.8-17.2s3.2-18.4,4.3-24.3
		s2.4-10.7,3.7-14.7c1.3-4,2.6-6,3.8-6c1.2,0,2.1,0.3,2.8,0.8c0,2,0.6,7.6,1.7,16.6c1.1,9,1.7,14.8,1.7,17.5s0.3,7,0.9,13.2
		c0.6,6.1,0.9,10.8,0.9,13.8C779.3,161.5,778.4,162.4,776.5,162.4z M772.9,134.3c-0.5-5.1-1-9.9-1.4-14.5c-0.4-4.6-0.6-7.4-0.6-8.4
		s0-1.5,0-1.7c-0.9,0.9-2.2,6.1-3.9,15.4c-1.7,9.4-2.6,15.3-2.7,17.8c2.4,0.6,4.4,1,6,1c1.6,0,2.8-0.1,3.4-0.3
		C773.7,142.5,773.4,139.4,772.9,134.3z M768.1,91.3c-0.3-0.2-0.4-0.5-0.4-0.8c0-0.3,0.4-0.8,1.2-1.6c0.8-0.7,2.6-2.3,5.4-4.7
		c2.8-2.4,4.5-3.9,5.1-4.4c0.3-0.1,0.7-0.2,1.1-0.2s0.9,0.4,1.5,1.1s0.9,1.4,0.9,2.1s-0.2,1.1-0.6,1.4c-2.2,1.6-6.4,4-12.5,7.3
		c-0.2,0.1-0.5,0.2-0.8,0.2C768.7,91.6,768.4,91.5,768.1,91.3z"/>
	<path d="M783.5,161.5c0-1.5,0.6-2.3,1.9-2.3c0.6,0,1.5,0.2,2.5,0.7c1,0.4,2,0.7,2.7,0.7c0.8,0,1.6-0.5,2.5-1.5
		c0.9-1,1.6-2.2,2.1-3.7c1-3,1.6-5.6,1.6-8s-0.4-5-1.3-7.7c-0.8-2.7-1.9-5.3-3.1-7.7c-1.2-2.4-2.4-4.8-3.7-7.2
		c-2.9-5.7-4.4-11-4.3-15.7c0-4.5,1.4-8,4.2-10.5c1.5-1.3,3.3-2,5.3-2c1,0,2,0.3,3,0.9c1,0.6,1.7,1.3,2.1,2.2l-1.5,1.8
		c-1.4,0-2.5-0.3-3.4-0.8c-1.1,0.1-2,0.6-2.8,1.5c-1.4,1.7-2.1,3.7-2.1,6.1c0,2.4,0.3,4.8,0.9,7.1c0.6,2.3,1.4,4.4,2.3,6.2
		c0.9,1.8,1.9,3.8,3,5.9c1.1,2.1,2.1,4.2,3,6.1c2.2,4.5,3.2,9.4,3.2,14.7c0,3.7-0.9,7.3-2.8,10.7c-0.9,1.6-2.1,3-3.7,4
		c-1.6,1-3.3,1.6-5.2,1.6c-2.1,0-3.7-0.3-4.9-0.9C784.1,162.8,783.5,162.2,783.5,161.5z"/>
	<path d="M835.8,162.4c-1.8,0-2.6-0.7-2.6-2.2V149c-0.8-0.6-2.3-1-4.4-1.4c-2.1-0.4-4-0.6-5.6-0.8c-0.6,1-1.1,2.5-1.4,4.4
		c-0.4,1.9-0.8,3.8-1.2,5.8c-0.4,1.9-0.9,3.5-1.6,4.6c-2.2,0-3.5-0.6-3.8-1.7c0.8-1.1,2.1-6.8,3.8-17.2s3.2-18.4,4.3-24.3
		s2.4-10.7,3.7-14.7c1.3-4,2.6-6,3.8-6c1.2,0,2.1,0.3,2.8,0.8c0,2,0.6,7.6,1.7,16.6c1.1,9,1.7,14.8,1.7,17.5s0.3,7,0.9,13.2
		c0.6,6.1,0.9,10.8,0.9,13.8C838.6,161.5,837.7,162.4,835.8,162.4z M832.2,134.3c-0.5-5.1-1-9.9-1.4-14.5c-0.4-4.6-0.6-7.4-0.6-8.4
		s0-1.5,0-1.7c-0.9,0.9-2.2,6.1-3.9,15.4c-1.7,9.4-2.6,15.3-2.7,17.8c2.4,0.6,4.4,1,6,1c1.6,0,2.8-0.1,3.4-0.3
		C833,142.5,832.7,139.4,832.2,134.3z"/>
	<path d="M844.8,160l0.4-30.7c0-13.5-0.7-23.7-2.2-30.7c0.9-1.3,2-1.9,3.3-1.9c2.1,0,4.1,0.5,5.8,1.4c1.7,1,3.2,2.2,4.3,3.8
		c2.3,3.3,3.4,7,3.4,11.2s-0.9,8-2.7,11.4c-1.8,3.4-4.5,6.1-8,8l0.7,26.8c0,2.4-1,3.6-2.9,3.6c-0.7,0-1.2-0.3-1.6-0.9
		S844.8,160.8,844.8,160z M848.8,128.4c4.4-4.1,6.6-8.9,6.6-14.6v0c0-3.2-0.4-5.5-1.2-6.8c-0.4-0.6-0.7-1.1-0.9-1.4
		c-0.2-0.3-0.7-0.8-1.4-1.4c-0.9-0.7-2.2-1.7-4-3c0,3,0.2,7.6,0.5,13.6S848.8,125.4,848.8,128.4z"/>
	<path d="M886.4,136.5l-0.8,10.9v0.4c-0.4,1.6-0.5,3.3-0.5,5.2s-0.3,3.6-1,5.4c-0.6,1.7-1.6,3.2-2.9,4.6c-1.3,1.3-2.8,2-4.3,2
		c-1.6,0-3-0.5-4.3-1.6c-1.3-1.1-2.4-2.4-3.2-4.1c-0.8-1.7-1.6-3.7-2.2-6c-0.6-2.3-1.1-4.6-1.5-6.8c-0.4-2.2-0.6-4.5-0.9-6.9
		c-0.3-3.7-0.5-6.6-0.5-8.7c0-2.1,0-3.8,0-5.3c0-1.5-0.1-2.8-0.1-4c0-0.6,0-1.2,0-2s0-1.5,0-2.3c0-1.7,0.1-3.1,0.1-4.5
		c0.1-1.3,0.2-2.7,0.4-4.3c0.2-1.5,0.4-2.9,0.7-4c0.3-1.2,0.7-2.3,1.1-3.4c0.5-1.1,1.1-2.1,1.7-2.8c1.4-1.6,3-2.4,4.8-2.4
		c1.8,0,3.4,0.3,4.7,1c1.3,0.7,2.4,1.7,3.3,3.2c0.9,1.5,1.7,2.9,2.3,4.2c0.7,1.4,1.2,3.3,1.6,5.7c0.4,2.5,0.7,4.4,0.9,5.9
		c0.2,1.5,0.4,3.7,0.5,6.6c0.1,3.8,0.2,6.8,0.2,9V136.5z M878.8,105c-0.6-1.5-1.3-2.6-2.1-3.4c-0.9-0.8-1.7-1.2-2.5-1.2
		s-1.5,0.3-2.1,0.9s-1,1.4-1.4,2.5c-0.4,1.1-0.7,2.2-1,3.5c-0.3,1.2-0.5,2.7-0.7,4.3c-0.2,1.6-0.3,3.1-0.4,4.4
		c-0.1,1.3-0.2,2.7-0.2,4.3c-0.1,2.6-0.1,4.6-0.1,6.1v0.4c0,3.8,0.3,8,0.9,12.4c0.6,4.4,1.2,8.1,1.8,10.9c0.6,2.8,1.5,5.2,2.5,7.2
		c1.1,2,2.3,3,3.6,3c1.1,0,2.1-1.1,2.9-3.2c0.8-2.2,1.3-4.9,1.7-8.1c0.6-5.7,0.8-9.7,0.9-12c0-2.3,0-4,0-5.1c0-1.1-0.1-2.6-0.1-4.6
		c-0.1-2-0.2-3.9-0.4-5.7c-0.2-1.8-0.4-3.7-0.7-5.9c-0.3-2.2-0.6-4.1-1-5.8C879.9,108.1,879.4,106.5,878.8,105z"/>
	<path d="M897.5,161.4l0.4-16.6c0-1.7-0.3-4.2-0.8-7.5c-0.5-3.3-0.8-5.9-0.8-7.9c0-2-0.3-4.4-1-7.3c-0.7-2.9-1.4-5.5-2.3-7.7
		c-2.2-6-3.3-11.2-3.3-15.4c0-0.4,0.2-0.8,0.7-1.1c0.5-0.3,1-0.4,1.5-0.4c0.5,0,1.1,0.7,1.7,2c0.6,1.3,1.2,3,1.7,5
		c0.5,2,1,4.1,1.4,6.1c0.4,2,0.8,4,1.2,5.9c0.4,1.9,0.6,3.2,0.8,3.7c0.1-0.5,0.2-1.7,0.4-3.6c0.2-1.9,0.3-3.8,0.5-5.8
		c0.2-2,0.5-4,0.8-6c0.8-4.6,1.9-6.9,3.4-6.9c1.5,0,2.3,0.3,2.3,0.9c0,3.2-0.7,8-2.1,14.4c-1.4,6.4-2.1,11.2-2.1,14.5l-0.3,3v1.3
		l0.5,22.8l0.3,4.3v1.9c0,0.8-0.3,1.4-0.9,1.8c-0.6,0.5-1.2,0.7-1.9,0.7s-1.2-0.2-1.7-0.6C897.8,162.5,897.5,162,897.5,161.4z"/>
	<path d="M928.1,162.4c-1.8,0-2.6-0.7-2.6-2.2V149c-0.8-0.6-2.3-1-4.4-1.4c-2.1-0.4-4-0.6-5.6-0.8c-0.6,1-1.1,2.5-1.4,4.4
		c-0.4,1.9-0.8,3.8-1.2,5.8c-0.4,1.9-0.9,3.5-1.6,4.6c-2.2,0-3.5-0.6-3.8-1.7c0.8-1.1,2.1-6.8,3.8-17.2s3.2-18.4,4.3-24.3
		s2.4-10.7,3.7-14.7c1.3-4,2.6-6,3.8-6c1.2,0,2.1,0.3,2.8,0.8c0,2,0.6,7.6,1.7,16.6c1.1,9,1.7,14.8,1.7,17.5s0.3,7,0.9,13.2
		c0.6,6.1,0.9,10.8,0.9,13.8C931,161.5,930,162.4,928.1,162.4z M924.5,134.3c-0.5-5.1-1-9.9-1.4-14.5c-0.4-4.6-0.6-7.4-0.6-8.4
		s0-1.5,0-1.7c-0.9,0.9-2.2,6.1-3.9,15.4c-1.7,9.4-2.6,15.3-2.7,17.8c2.4,0.6,4.4,1,6,1c1.6,0,2.8-0.1,3.4-0.3
		C925.3,142.5,925,139.4,924.5,134.3z"/>
	<path d="M936.8,159.9l0.3-50.4V98.9c0-0.7,0.1-1.1,0.4-1.4c0.3-0.3,1-0.4,2.2-0.4c1.2,0,2.4,0.3,3.6,0.9c1.2,0.6,2.2,1.3,3.1,2.3
		c0.8,1,1.5,2.1,2.1,3.4c1.1,2.4,1.7,5,1.7,7.8c0,2.8-0.7,6-2.1,9.6c-0.2,0.4-0.5,1.2-1,2.5s-0.8,2-0.9,2.2c0,4.3,1.1,9.8,3.2,16.6
		c0.7,2.3,1.8,5.4,3.1,9.4s2.2,6.5,2.5,7.6v0.2c0,1.9-0.2,3.1-0.7,3.4c-0.4,0.3-0.9,0.5-1.4,0.5c-1.1,0-2.1-0.8-3.1-2.3v-0.3
		c-0.3-5.2-2.1-13.1-5.4-23.6c-1.5-4.8-2.6-8.4-3.1-10.7v33.9c0,0.9-0.2,1.5-0.5,2c-0.3,0.5-0.9,0.7-1.7,0.7c-0.8,0-1.4-0.2-1.8-0.7
		c-0.4-0.5-0.6-1-0.6-1.7V159.9z M941.6,101l-0.5,17.6c0,1.8,0,3.1,0.1,3.9c1-0.9,1.9-2,2.9-3.3l1.3-7.4c0.1-0.4,0.1-0.8,0.1-1.3
		c0-1.4-0.3-3-0.8-5C943.9,102.7,942.9,101.3,941.6,101z"/>
	<path d="M959.4,117.4l0.6-15.8v-0.5c0-2.9,0.6-4.3,1.9-4.3c1.1,0,2.7,2.7,4.6,8c3.5,9.7,7.8,25.6,12.7,47.8l0.1,0.4l0.3-30V97.6
		c0.3-1.4,1.3-2.1,2.8-2.1c1.5,0,2.3,1.1,2.3,3.4v0.5c-0.3,0.7-0.5,1.5-0.5,2.5l-0.5,31.8v26.3c0,0.9-0.2,1.7-0.7,2.6
		c-0.5,0.8-1.1,1.3-1.8,1.3c-1.2,0-3.6-5.9-7.1-17.7c-3.5-11.8-7-24.5-10.4-38.1v28.2c0,2.7,0.2,6.8,0.6,12.3
		c0.4,5.4,0.6,9.5,0.6,12.3c0,0.5-0.3,1-1,1.3c-0.6,0.4-1.5,0.5-2.5,0.5c-1,0-1.5-0.4-1.5-1.3l0.4-6.2c0-3-0.2-7.8-0.5-14.4
		c-0.4-6.7-0.5-10.7-0.5-12.2V117.4z"/>
	<path d="M1011.9,136.5l-0.8,10.9v0.4c-0.4,1.6-0.5,3.3-0.5,5.2s-0.3,3.6-1,5.4c-0.6,1.7-1.6,3.2-2.9,4.6c-1.3,1.3-2.8,2-4.3,2
		c-1.6,0-3-0.5-4.3-1.6c-1.3-1.1-2.4-2.4-3.2-4.1c-0.8-1.7-1.6-3.7-2.2-6c-0.6-2.3-1.1-4.6-1.5-6.8c-0.4-2.2-0.6-4.5-0.9-6.9
		c-0.3-3.7-0.5-6.6-0.5-8.7c0-2.1,0-3.8,0-5.3c0-1.5-0.1-2.8-0.1-4c0-0.6,0-1.2,0-2s0-1.5,0-2.3c0-1.7,0.1-3.1,0.1-4.5
		c0.1-1.3,0.2-2.7,0.4-4.3c0.2-1.5,0.4-2.9,0.7-4c0.3-1.2,0.7-2.3,1.1-3.4c0.5-1.1,1.1-2.1,1.7-2.8c1.4-1.6,3-2.4,4.8-2.4
		c1.8,0,3.4,0.3,4.7,1c1.3,0.7,2.4,1.7,3.3,3.2c0.9,1.5,1.7,2.9,2.3,4.2c0.7,1.4,1.2,3.3,1.6,5.7c0.4,2.5,0.7,4.4,0.9,5.9
		c0.2,1.5,0.4,3.7,0.5,6.6c0.1,3.8,0.2,6.8,0.2,9V136.5z M1004.3,105c-0.6-1.5-1.3-2.6-2.1-3.4c-0.9-0.8-1.7-1.2-2.5-1.2
		s-1.5,0.3-2.1,0.9c-0.5,0.6-1,1.4-1.4,2.5c-0.4,1.1-0.7,2.2-1,3.5c-0.3,1.2-0.5,2.7-0.7,4.3c-0.2,1.6-0.3,3.1-0.4,4.4
		c-0.1,1.3-0.2,2.7-0.2,4.3c-0.1,2.6-0.1,4.6-0.1,6.1v0.4c0,3.8,0.3,8,0.9,12.4c0.6,4.4,1.2,8.1,1.8,10.9c0.6,2.8,1.5,5.2,2.5,7.2
		c1.1,2,2.3,3,3.6,3c1.1,0,2.1-1.1,2.9-3.2c0.8-2.2,1.3-4.9,1.7-8.1c0.6-5.7,0.8-9.7,0.9-12c0-2.3,0-4,0-5.1c0-1.1-0.1-2.6-0.1-4.6
		c-0.1-2-0.2-3.9-0.4-5.7c-0.2-1.8-0.4-3.7-0.7-5.9c-0.3-2.2-0.6-4.1-1-5.8C1005.4,108.1,1004.9,106.5,1004.3,105z"/>
	<path d="M1016.4,161.5c0-1.5,0.6-2.3,1.9-2.3c0.6,0,1.5,0.2,2.5,0.7c1,0.4,2,0.7,2.7,0.7c0.8,0,1.6-0.5,2.5-1.5
		c0.9-1,1.6-2.2,2.1-3.7c1-3,1.6-5.6,1.6-8s-0.4-5-1.3-7.7c-0.8-2.7-1.9-5.3-3.1-7.7c-1.2-2.4-2.4-4.8-3.7-7.2
		c-2.9-5.7-4.4-11-4.3-15.7c0-4.5,1.4-8,4.2-10.5c1.5-1.3,3.3-2,5.3-2c1,0,2,0.3,3,0.9c1,0.6,1.7,1.3,2.1,2.2l-1.5,1.8
		c-1.4,0-2.5-0.3-3.4-0.8c-1.1,0.1-2,0.6-2.8,1.5c-1.4,1.7-2.1,3.7-2.1,6.1c0,2.4,0.3,4.8,0.9,7.1c0.6,2.3,1.4,4.4,2.3,6.2
		c0.9,1.8,1.9,3.8,3,5.9c1.1,2.1,2.1,4.2,3,6.1c2.2,4.5,3.2,9.4,3.2,14.7c0,3.7-0.9,7.3-2.8,10.7c-0.9,1.6-2.1,3-3.7,4
		c-1.6,1-3.3,1.6-5.2,1.6c-2.1,0-3.7-0.3-4.9-0.9C1017,162.8,1016.4,162.2,1016.4,161.5z"/>
	<path d="M1058.8,131l-2.1-0.1c-0.8,0-1.4,0.2-1.8,0.6V158c2.9-0.2,4.5-0.3,4.8-0.3c3.3,0,4.9,0.8,4.9,2.3v0.3
		c-0.4,0.8-1.1,1.4-2,1.8c-1,0.4-1.8,0.7-2.5,0.7c-0.7,0.1-1.7,0.1-2.8,0.1h-2.7c-2.1,0-3.4-0.4-3.9-1.3c-0.2-0.4-0.3-0.9-0.3-1.6
		v-50c0-1-0.2-2.4-0.6-4.4c-0.4-1.9-0.6-3.4-0.6-4.4v-0.3c1-1.6,1.7-2.6,2.1-3l6.4-0.8c0.9,0,1.7,0.3,2.6,0.8c0.9,0.5,1.3,1.2,1.3,2
		c0,1.7-1.3,2.6-3.9,2.6l-2.5-0.1c-0.4,0-0.7,0-0.9,0l0.7,14.2c0,1.1-0.1,2.8-0.2,5c-0.1,2.2-0.2,3.8-0.2,4.8
		c0.3-0.1,0.7-0.2,1.3-0.3c1.2-0.3,2.1-0.5,2.8-0.5c0.7,0,1.2,0.2,1.8,0.7c0.5,0.5,0.8,1,0.8,1.7s-0.2,1.3-0.6,1.8
		C1060.1,130.7,1059.5,131,1058.8,131z"/>
	<path d="M1068.5,117.4l0.6-15.8v-0.5c0-2.9,0.6-4.3,1.9-4.3c1.1,0,2.7,2.7,4.6,8c3.5,9.7,7.8,25.6,12.7,47.8l0.1,0.4l0.3-30V97.6
		c0.3-1.4,1.3-2.1,2.8-2.1c1.5,0,2.3,1.1,2.3,3.4v0.5c-0.3,0.7-0.5,1.5-0.5,2.5l-0.5,31.8v26.3c0,0.9-0.2,1.7-0.7,2.6
		c-0.5,0.8-1.1,1.3-1.8,1.3c-1.2,0-3.6-5.9-7.1-17.7c-3.5-11.8-7-24.5-10.4-38.1v28.2c0,2.7,0.2,6.8,0.6,12.3
		c0.4,5.4,0.6,9.5,0.6,12.3c0,0.5-0.3,1-1,1.3c-0.6,0.4-1.5,0.5-2.5,0.5c-1,0-1.5-0.4-1.5-1.3l0.4-6.2c0-3-0.2-7.8-0.5-14.4
		c-0.4-6.7-0.5-10.7-0.5-12.2V117.4z"/>
</g>
<path style="fill:#FFFFFF;" d="M1032.8,217c0-10,5.2-15.2,14.9-15.2h17.8c10.8,0,19.2,8.2,19.2,18.7c0,5.7-2.4,10.4-6.3,13.4
	l5.3,8.5c1.4,2.2,2.1,4.7,2.1,7.2c0,7.5-6,13.5-13.5,13.5c-4.6,0-9.1-2.3-11.7-6.6l-1.4-2.5c-1.7,5.4-6.6,9.2-12.7,9.2
	c-7.5,0-13.7-6.3-13.7-14V217L1032.8,217z M1028.7,251.3c0,6.6-5.3,11.8-11.6,11.7h-21.3c-9.7,0-15-5.1-15-15.2v-30.7
	c0-10,5.3-15.2,15-15.2h21.3c6.4,0,11.6,5.2,11.6,11.8c0,6-3.6,10.3-8.9,11.3c2.4,1.5,3.7,4.1,3.7,7.5c0,3.4-1.4,6-3.7,7.5
	C1024.9,241,1028.7,245.4,1028.7,251.3L1028.7,251.3z M964.3,249.3c0,7.5-6.3,13.8-14.8,13.8c-8,0-14.4-6.2-14.4-13.8v-21.1
	c-6.8-0.4-12.4-6-12.4-13.1c0-7.4,5.9-13.1,13.1-13.1h27.7c7.2,0,13.1,5.8,13.1,13.1c0,7.1-5.6,12.8-12.4,13.1V249.3L964.3,249.3z
	 M868.7,217c0-10,5.3-15.2,14.9-15.2h17.8c10.8,0,19.2,8.2,19.2,18.7c0,5.7-2.4,10.4-6.3,13.4l5.3,8.5c1.4,2.2,2.1,4.7,2.1,7.2
	c0,7.5-6,13.5-13.5,13.5c-4.6,0-9.1-2.3-11.7-6.6l-1.4-2.5c-1.7,5.4-6.6,9.2-12.7,9.2c-7.5,0-13.7-6.3-13.7-14V217L868.7,217z
	 M834.9,251.4c-3.5,7.2-8.4,10.6-14.3,10.6c-10.7,0-18.5-9.8-13.7-20.9l12.6-29.2c3.2-7.2,7.8-11.1,15.5-11.1
	c7.9,0,12.5,3.9,15.5,11.1l12.6,29.2c4.7,11-3,20.9-13.8,20.9C843.3,262,838.4,258.6,834.9,251.4L834.9,251.4z M799.1,249.3
	c0,7.5-6.4,13.8-14.7,13.8c-8,0-14.4-6.2-14.4-13.8v-21.1c-6.8-0.4-12.5-6-12.5-13.1c0-7.4,5.9-13.1,13.2-13.1h27.7
	c7.3,0,13.2,5.8,13.2,13.1c0,7.1-5.6,12.8-12.5,13.1V249.3L799.1,249.3z M757.5,243.2c0,12.2-9.4,19.8-25.2,19.8
	c-16.1,0-23.7-5.5-23.7-14.5c0-6.2,4.8-10.2,11.6-10.2h0.1l-3.7-3.4c-4.6-4.2-7.8-8.4-7.8-14.5c0-12,8.8-19.5,23.8-19.5
	c15.3,0,22.6,5.4,22.6,14.5c0,5.4-3.7,9.1-9.2,9.9l3.8,3.4C754.5,232.7,757.5,237,757.5,243.2L757.5,243.2z M705.6,248.3
	c0,7.5-6.3,13.8-14,13.7c-4.3,0-8.7-2-11.4-5.9l-2.9-4.1c-1.3,5.9-6.5,9.9-13.1,9.9c-7.6,0-13.7-6.1-13.7-13.6v-34
	c0-7.5,6-13.6,13.7-13.6c6.7,0,11.9,4.4,13.2,10.3l3.2-4.5c2.7-3.7,7-5.8,11.3-5.8c7.4,0,13.7,5.8,13.7,13.3c0,2.8-0.8,5.7-2.6,8
	l-6.6,9l6.6,9C704.7,242.7,705.6,245.5,705.6,248.3L705.6,248.3z M645.4,245.2c0,9.8-8.2,16.8-21.4,16.8
	c-17.6,0-30.6-13.1-30.6-30.6c0-17.5,13-30.6,30.6-30.6c13.2,0,21.4,7,21.4,16.8c0,6.6-3.2,11-9.7,13.8
	C642.2,234.2,645.4,238.7,645.4,245.2L645.4,245.2z M573.6,200.8c8.2,0,14.8,6.7,14.7,14.6v31.9c0,7.9-6.5,14.6-14.8,14.6
	c-8.1,0-14.7-6.6-14.7-14.6v-31.9C558.8,207.5,565.4,200.8,573.6,200.8L573.6,200.8z M554.7,248.3c0,7.5-6.3,13.8-14.1,13.7
	c-4.3,0-8.7-2-11.4-5.9l-2.9-4.1c-1.3,5.9-6.5,9.9-13,9.9c-7.6,0-13.7-6.1-13.7-13.6v-34c0-7.5,6-13.6,13.7-13.6
	c6.7,0,11.9,4.4,13.1,10.3l3.3-4.5c2.7-3.7,7-5.8,11.3-5.8c7.4,0,13.7,5.8,13.7,13.3c0,2.8-0.8,5.7-2.6,8l-6.6,9l6.6,9
	C553.9,242.7,554.7,245.5,554.7,248.3L554.7,248.3z"/>
</svg>
